<svg width="362" height="41" viewBox="0 0 362 41" fill="none" xmlns="http://www.w3.org/2000/svg">
<path d="M19.2676 21.5566C19.2676 23.0918 19.1035 24.5566 18.7754 25.9512C18.459 27.334 17.9434 28.5527 17.2285 29.6074C16.5254 30.6504 15.6113 31.4766 14.4863 32.0859C13.373 32.6953 12.0254 33 10.4434 33H2.99023V10.0605H10.4434C12.002 10.0605 13.3379 10.377 14.4512 11.0098C15.5762 11.6309 16.4902 12.4688 17.1934 13.5234C17.9082 14.5781 18.4297 15.7969 18.7578 17.1797C19.0977 18.5625 19.2676 20.0215 19.2676 21.5566ZM16.8594 21.5566C16.8594 18.5566 16.291 16.2363 15.1543 14.5957C14.0293 12.9434 12.459 12.1172 10.4434 12.1172H5.39844V30.9434H10.4434C12.459 30.9434 14.0293 30.1289 15.1543 28.5C16.291 26.8711 16.8594 24.5566 16.8594 21.5566ZM38.7793 21.5566C38.7793 23.0918 38.6211 24.5742 38.3047 26.0039C37.9883 27.4336 37.4844 28.6934 36.793 29.7832C36.1016 30.873 35.1934 31.752 34.0684 32.4199C32.9551 33.0762 31.5957 33.4043 29.9902 33.4043C28.3848 33.4043 27.0195 33.0762 25.8945 32.4199C24.7812 31.752 23.873 30.873 23.1699 29.7832C22.4785 28.6934 21.9805 27.4336 21.6758 26.0039C21.3594 24.5742 21.2012 23.0918 21.2012 21.5566C21.2012 20.0215 21.3594 18.5391 21.6758 17.1094C21.9805 15.6797 22.4844 14.4141 23.1875 13.3125C23.9023 12.2109 24.8164 11.332 25.9297 10.6758C27.0547 10.0078 28.4082 9.67383 29.9902 9.67383C31.5723 9.67383 32.9199 10.0078 34.0332 10.6758C35.1582 11.332 36.0664 12.2109 36.7578 13.3125C37.4492 14.4141 37.959 15.6797 38.2871 17.1094C38.6152 18.5391 38.7793 20.0215 38.7793 21.5566ZM36.3535 21.5566C36.3535 20.0449 36.207 18.6855 35.9141 17.4785C35.6328 16.2598 35.2227 15.2227 34.6836 14.3672C34.1445 13.5117 33.4766 12.8613 32.6797 12.416C31.8945 11.959 30.998 11.7305 29.9902 11.7305C28.7363 11.7305 27.6992 12.0234 26.8789 12.6094C26.0703 13.1953 25.4199 13.9629 24.9277 14.9121C24.4355 15.8613 24.0898 16.916 23.8906 18.0762C23.7031 19.2363 23.6094 20.3965 23.6094 21.5566C23.6094 22.7051 23.7031 23.8652 23.8906 25.0371C24.0898 26.1973 24.4355 27.2461 24.9277 28.1836C25.4199 29.1094 26.0703 29.8711 26.8789 30.4688C27.6992 31.0547 28.7363 31.3477 29.9902 31.3477C31.2324 31.3477 32.2637 31.0547 33.084 30.4688C33.9043 29.8711 34.5605 29.1094 35.0527 28.1836C35.5449 27.2461 35.8848 26.1973 36.0723 25.0371C36.2598 23.8652 36.3535 22.7051 36.3535 21.5566ZM56.9551 33H53.9668L44.7031 13.5938V33H42.2949V10.0605H45.6875L54.5293 28.5703V10.0605H56.9551V33ZM64.3555 10.0605H69.9805V13.8926C69.9805 14.7012 69.8574 15.4688 69.6113 16.1953C69.377 16.9102 69.0254 17.5371 68.5566 18.0762C68.0879 18.6152 67.502 19.0488 66.7988 19.377C66.1074 19.6934 65.293 19.8516 64.3555 19.8516V17.8125C66.7344 17.8125 67.9238 16.5059 67.9238 13.8926V13.3477H64.3555V10.0605ZM97.1211 17.8125H95.0645V12.1172H90.1426V30.9434H93.834V33H84.0078V30.9434H87.7168V12.1172H82.7949V17.8125H80.7383V10.0605H97.1211V17.8125ZM135.846 27.0234C135.846 27.9844 135.646 28.8574 135.248 29.6426C134.85 30.416 134.316 31.084 133.648 31.6465C132.98 32.209 132.213 32.6426 131.346 32.9473C130.479 33.252 129.576 33.4043 128.639 33.4043C127.35 33.4043 126.166 33.1641 125.088 32.6836C124.01 32.2031 123.154 31.4941 122.521 30.5566V33H120.482V26.0215H122.521C122.521 26.8066 122.703 27.5273 123.066 28.1836C123.43 28.8281 123.893 29.3848 124.455 29.8535C125.018 30.3223 125.662 30.6914 126.389 30.9609C127.127 31.2188 127.877 31.3477 128.639 31.3477C129.318 31.3477 129.945 31.2539 130.52 31.0664C131.094 30.8672 131.598 30.5918 132.031 30.2402C132.465 29.877 132.805 29.4375 133.051 28.9219C133.309 28.4062 133.438 27.8203 133.438 27.1641C133.438 26.4258 133.273 25.793 132.945 25.2656C132.629 24.7383 132.195 24.2871 131.645 23.9121C131.105 23.5371 130.496 23.2207 129.816 22.9629C129.137 22.6934 128.445 22.4297 127.742 22.1719C126.91 21.8789 126.078 21.5742 125.246 21.2578C124.414 20.9297 123.67 20.5195 123.014 20.0273C122.357 19.5352 121.824 18.9375 121.414 18.2344C121.004 17.5195 120.799 16.6348 120.799 15.5801C120.799 14.6426 120.998 13.8105 121.396 13.084C121.795 12.3457 122.316 11.7246 122.961 11.2207C123.605 10.7168 124.355 10.3359 125.211 10.0781C126.066 9.80859 126.945 9.67383 127.848 9.67383C128.961 9.67383 129.986 9.90234 130.924 10.3594C131.873 10.8164 132.611 11.5137 133.139 12.4512V10.0605H135.266V16.6172H133.139C133.139 15.9258 132.992 15.2812 132.699 14.6836C132.418 14.0742 132.031 13.5586 131.539 13.1367C131.047 12.7031 130.484 12.3633 129.852 12.1172C129.219 11.8594 128.551 11.7305 127.848 11.7305C127.227 11.7305 126.635 11.8008 126.072 11.9414C125.51 12.082 125.018 12.3105 124.596 12.627C124.174 12.9316 123.834 13.3301 123.576 13.8223C123.33 14.3145 123.207 14.9004 123.207 15.5801C123.207 16.1777 123.354 16.6875 123.646 17.1094C123.951 17.5312 124.355 17.9062 124.859 18.2344C125.363 18.5508 125.943 18.8438 126.6 19.1133C127.268 19.3711 127.947 19.6348 128.639 19.9043C129.506 20.209 130.367 20.5488 131.223 20.9238C132.078 21.2988 132.846 21.75 133.525 22.2773C134.205 22.8047 134.762 23.4551 135.195 24.2285C135.629 24.9902 135.846 25.9219 135.846 27.0234ZM156.078 17.8125H154.021V12.1172H149.1V30.9434H152.791V33H142.965V30.9434H146.674V12.1172H141.752V17.8125H139.695V10.0605H156.078V17.8125ZM176.346 21.5566C176.346 23.0918 176.188 24.5742 175.871 26.0039C175.555 27.4336 175.051 28.6934 174.359 29.7832C173.668 30.873 172.76 31.752 171.635 32.4199C170.521 33.0762 169.162 33.4043 167.557 33.4043C165.951 33.4043 164.586 33.0762 163.461 32.4199C162.348 31.752 161.439 30.873 160.736 29.7832C160.045 28.6934 159.547 27.4336 159.242 26.0039C158.926 24.5742 158.768 23.0918 158.768 21.5566C158.768 20.0215 158.926 18.5391 159.242 17.1094C159.547 15.6797 160.051 14.4141 160.754 13.3125C161.469 12.2109 162.383 11.332 163.496 10.6758C164.621 10.0078 165.975 9.67383 167.557 9.67383C169.139 9.67383 170.486 10.0078 171.6 10.6758C172.725 11.332 173.633 12.2109 174.324 13.3125C175.016 14.4141 175.525 15.6797 175.854 17.1094C176.182 18.5391 176.346 20.0215 176.346 21.5566ZM173.92 21.5566C173.92 20.0449 173.773 18.6855 173.48 17.4785C173.199 16.2598 172.789 15.2227 172.25 14.3672C171.711 13.5117 171.043 12.8613 170.246 12.416C169.461 11.959 168.564 11.7305 167.557 11.7305C166.303 11.7305 165.266 12.0234 164.445 12.6094C163.637 13.1953 162.986 13.9629 162.494 14.9121C162.002 15.8613 161.656 16.916 161.457 18.0762C161.27 19.2363 161.176 20.3965 161.176 21.5566C161.176 22.7051 161.27 23.8652 161.457 25.0371C161.656 26.1973 162.002 27.2461 162.494 28.1836C162.986 29.1094 163.637 29.8711 164.445 30.4688C165.266 31.0547 166.303 31.3477 167.557 31.3477C168.799 31.3477 169.83 31.0547 170.65 30.4688C171.471 29.8711 172.127 29.1094 172.619 28.1836C173.111 27.2461 173.451 26.1973 173.639 25.0371C173.826 23.8652 173.92 22.7051 173.92 21.5566ZM195.348 16.6172C195.348 18.832 194.656 20.4785 193.273 21.5566C191.891 22.6348 189.951 23.1738 187.455 23.1738H182.27V33H179.861V10.0605H187.42C189.939 10.0605 191.891 10.6113 193.273 11.7129C194.656 12.8027 195.348 14.4375 195.348 16.6172ZM192.939 16.6172C192.939 15.0352 192.441 13.8926 191.445 13.1895C190.449 12.4746 189.119 12.1172 187.455 12.1172H182.27V21.1172H187.455C189.119 21.1172 190.449 20.7656 191.445 20.0625C192.441 19.3477 192.939 18.1992 192.939 16.6172ZM233.826 33H219.166V10.0605H221.574V30.9434H233.826V33ZM254.955 21.5566C254.955 23.0918 254.797 24.5742 254.48 26.0039C254.164 27.4336 253.66 28.6934 252.969 29.7832C252.277 30.873 251.369 31.752 250.244 32.4199C249.131 33.0762 247.771 33.4043 246.166 33.4043C244.561 33.4043 243.195 33.0762 242.07 32.4199C240.957 31.752 240.049 30.873 239.346 29.7832C238.654 28.6934 238.156 27.4336 237.852 26.0039C237.535 24.5742 237.377 23.0918 237.377 21.5566C237.377 20.0215 237.535 18.5391 237.852 17.1094C238.156 15.6797 238.66 14.4141 239.363 13.3125C240.078 12.2109 240.992 11.332 242.105 10.6758C243.23 10.0078 244.584 9.67383 246.166 9.67383C247.748 9.67383 249.096 10.0078 250.209 10.6758C251.334 11.332 252.242 12.2109 252.934 13.3125C253.625 14.4141 254.135 15.6797 254.463 17.1094C254.791 18.5391 254.955 20.0215 254.955 21.5566ZM252.529 21.5566C252.529 20.0449 252.383 18.6855 252.09 17.4785C251.809 16.2598 251.398 15.2227 250.859 14.3672C250.32 13.5117 249.652 12.8613 248.855 12.416C248.07 11.959 247.174 11.7305 246.166 11.7305C244.912 11.7305 243.875 12.0234 243.055 12.6094C242.246 13.1953 241.596 13.9629 241.104 14.9121C240.611 15.8613 240.266 16.916 240.066 18.0762C239.879 19.2363 239.785 20.3965 239.785 21.5566C239.785 22.7051 239.879 23.8652 240.066 25.0371C240.266 26.1973 240.611 27.2461 241.104 28.1836C241.596 29.1094 242.246 29.8711 243.055 30.4688C243.875 31.0547 244.912 31.3477 246.166 31.3477C247.408 31.3477 248.439 31.0547 249.26 30.4688C250.08 29.8711 250.736 29.1094 251.229 28.1836C251.721 27.2461 252.061 26.1973 252.248 25.0371C252.436 23.8652 252.529 22.7051 252.529 21.5566ZM274.607 21.5566C274.607 23.0918 274.449 24.5742 274.133 26.0039C273.816 27.4336 273.312 28.6934 272.621 29.7832C271.93 30.873 271.021 31.752 269.896 32.4199C268.783 33.0762 267.424 33.4043 265.818 33.4043C264.213 33.4043 262.848 33.0762 261.723 32.4199C260.609 31.752 259.701 30.873 258.998 29.7832C258.307 28.6934 257.809 27.4336 257.504 26.0039C257.188 24.5742 257.029 23.0918 257.029 21.5566C257.029 20.0215 257.188 18.5391 257.504 17.1094C257.809 15.6797 258.312 14.4141 259.016 13.3125C259.73 12.2109 260.645 11.332 261.758 10.6758C262.883 10.0078 264.236 9.67383 265.818 9.67383C267.4 9.67383 268.748 10.0078 269.861 10.6758C270.986 11.332 271.895 12.2109 272.586 13.3125C273.277 14.4141 273.787 15.6797 274.115 17.1094C274.443 18.5391 274.607 20.0215 274.607 21.5566ZM272.182 21.5566C272.182 20.0449 272.035 18.6855 271.742 17.4785C271.461 16.2598 271.051 15.2227 270.512 14.3672C269.973 13.5117 269.305 12.8613 268.508 12.416C267.723 11.959 266.826 11.7305 265.818 11.7305C264.564 11.7305 263.527 12.0234 262.707 12.6094C261.898 13.1953 261.248 13.9629 260.756 14.9121C260.264 15.8613 259.918 16.916 259.719 18.0762C259.531 19.2363 259.438 20.3965 259.438 21.5566C259.438 22.7051 259.531 23.8652 259.719 25.0371C259.918 26.1973 260.264 27.2461 260.756 28.1836C261.248 29.1094 261.898 29.8711 262.707 30.4688C263.527 31.0547 264.564 31.3477 265.818 31.3477C267.061 31.3477 268.092 31.0547 268.912 30.4688C269.732 29.8711 270.389 29.1094 270.881 28.1836C271.373 27.2461 271.713 26.1973 271.9 25.0371C272.088 23.8652 272.182 22.7051 272.182 21.5566ZM293.539 33H290.586L282.957 21.7676L280.531 24.4746V33H278.123V10.0605H280.531V21.2227L290.357 10.0605H293.539L284.539 20.0801L293.539 33ZM310.01 33H300.184V30.9434H303.893V12.1172H300.184V10.0605H310.01V12.1172H306.318V30.9434H310.01V33ZM332.088 33H329.1L319.836 13.5938V33H317.428V10.0605H320.82L329.662 28.5703V10.0605H332.088V33ZM353.498 21.5918C353.498 23.1504 353.334 24.6387 353.006 26.0566C352.689 27.4746 352.174 28.7285 351.459 29.8184C350.756 30.9082 349.842 31.7812 348.717 32.4375C347.604 33.082 346.256 33.4043 344.674 33.4043C343.068 33.4043 341.709 33.0762 340.596 32.4199C339.482 31.752 338.568 30.873 337.854 29.7832C337.15 28.6934 336.641 27.4336 336.324 26.0039C336.02 24.5742 335.867 23.0918 335.867 21.5566C335.867 20.0215 336.02 18.5391 336.324 17.1094C336.641 15.6797 337.15 14.4141 337.854 13.3125C338.568 12.2109 339.482 11.332 340.596 10.6758C341.709 10.0078 343.068 9.67383 344.674 9.67383C346.092 9.67383 347.305 9.92578 348.312 10.4297C349.32 10.9336 350.064 11.7012 350.545 12.7324V10.0605H352.602V17.584H350.545C350.545 16.752 350.387 15.9785 350.07 15.2637C349.766 14.5371 349.35 13.916 348.822 13.4004C348.295 12.8848 347.668 12.4805 346.941 12.1875C346.227 11.8828 345.471 11.7305 344.674 11.7305C343.432 11.7305 342.4 12.0234 341.58 12.6094C340.771 13.1953 340.121 13.9629 339.629 14.9121C339.137 15.8613 338.785 16.916 338.574 18.0762C338.375 19.2363 338.275 20.3965 338.275 21.5566C338.275 22.7051 338.375 23.8652 338.574 25.0371C338.785 26.1973 339.137 27.2461 339.629 28.1836C340.121 29.1094 340.771 29.8711 341.58 30.4688C342.4 31.0547 343.432 31.3477 344.674 31.3477C346.525 31.3477 347.984 30.6328 349.051 29.2031C350.117 27.7734 350.75 25.7637 350.949 23.1738H345.869V21.1172H353.498V21.5918Z" fill="#D500FF"/>
<g filter="url(#filter0_d_676_1810)">
<path d="M20.2676 20.5566C20.2676 22.0918 20.1035 23.5566 19.7754 24.9512C19.459 26.334 18.9434 27.5527 18.2285 28.6074C17.5254 29.6504 16.6113 30.4766 15.4863 31.0859C14.373 31.6953 13.0254 32 11.4434 32H3.99023V9.06055H11.4434C13.002 9.06055 14.3379 9.37695 15.4512 10.0098C16.5762 10.6309 17.4902 11.4688 18.1934 12.5234C18.9082 13.5781 19.4297 14.7969 19.7578 16.1797C20.0977 17.5625 20.2676 19.0215 20.2676 20.5566ZM17.8594 20.5566C17.8594 17.5566 17.291 15.2363 16.1543 13.5957C15.0293 11.9434 13.459 11.1172 11.4434 11.1172H6.39844V29.9434H11.4434C13.459 29.9434 15.0293 29.1289 16.1543 27.5C17.291 25.8711 17.8594 23.5566 17.8594 20.5566ZM39.7793 20.5566C39.7793 22.0918 39.6211 23.5742 39.3047 25.0039C38.9883 26.4336 38.4844 27.6934 37.793 28.7832C37.1016 29.873 36.1934 30.752 35.0684 31.4199C33.9551 32.0762 32.5957 32.4043 30.9902 32.4043C29.3848 32.4043 28.0195 32.0762 26.8945 31.4199C25.7812 30.752 24.873 29.873 24.1699 28.7832C23.4785 27.6934 22.9805 26.4336 22.6758 25.0039C22.3594 23.5742 22.2012 22.0918 22.2012 20.5566C22.2012 19.0215 22.3594 17.5391 22.6758 16.1094C22.9805 14.6797 23.4844 13.4141 24.1875 12.3125C24.9023 11.2109 25.8164 10.332 26.9297 9.67578C28.0547 9.00781 29.4082 8.67383 30.9902 8.67383C32.5723 8.67383 33.9199 9.00781 35.0332 9.67578C36.1582 10.332 37.0664 11.2109 37.7578 12.3125C38.4492 13.4141 38.959 14.6797 39.2871 16.1094C39.6152 17.5391 39.7793 19.0215 39.7793 20.5566ZM37.3535 20.5566C37.3535 19.0449 37.207 17.6855 36.9141 16.4785C36.6328 15.2598 36.2227 14.2227 35.6836 13.3672C35.1445 12.5117 34.4766 11.8613 33.6797 11.416C32.8945 10.959 31.998 10.7305 30.9902 10.7305C29.7363 10.7305 28.6992 11.0234 27.8789 11.6094C27.0703 12.1953 26.4199 12.9629 25.9277 13.9121C25.4355 14.8613 25.0898 15.916 24.8906 17.0762C24.7031 18.2363 24.6094 19.3965 24.6094 20.5566C24.6094 21.7051 24.7031 22.8652 24.8906 24.0371C25.0898 25.1973 25.4355 26.2461 25.9277 27.1836C26.4199 28.1094 27.0703 28.8711 27.8789 29.4688C28.6992 30.0547 29.7363 30.3477 30.9902 30.3477C32.2324 30.3477 33.2637 30.0547 34.084 29.4688C34.9043 28.8711 35.5605 28.1094 36.0527 27.1836C36.5449 26.2461 36.8848 25.1973 37.0723 24.0371C37.2598 22.8652 37.3535 21.7051 37.3535 20.5566ZM57.9551 32H54.9668L45.7031 12.5938V32H43.2949V9.06055H46.6875L55.5293 27.5703V9.06055H57.9551V32ZM65.3555 9.06055H70.9805V12.8926C70.9805 13.7012 70.8574 14.4688 70.6113 15.1953C70.377 15.9102 70.0254 16.5371 69.5566 17.0762C69.0879 17.6152 68.502 18.0488 67.7988 18.377C67.1074 18.6934 66.293 18.8516 65.3555 18.8516V16.8125C67.7344 16.8125 68.9238 15.5059 68.9238 12.8926V12.3477H65.3555V9.06055ZM98.1211 16.8125H96.0645V11.1172H91.1426V29.9434H94.834V32H85.0078V29.9434H88.7168V11.1172H83.7949V16.8125H81.7383V9.06055H98.1211V16.8125ZM136.846 26.0234C136.846 26.9844 136.646 27.8574 136.248 28.6426C135.85 29.416 135.316 30.084 134.648 30.6465C133.98 31.209 133.213 31.6426 132.346 31.9473C131.479 32.252 130.576 32.4043 129.639 32.4043C128.35 32.4043 127.166 32.1641 126.088 31.6836C125.01 31.2031 124.154 30.4941 123.521 29.5566V32H121.482V25.0215H123.521C123.521 25.8066 123.703 26.5273 124.066 27.1836C124.43 27.8281 124.893 28.3848 125.455 28.8535C126.018 29.3223 126.662 29.6914 127.389 29.9609C128.127 30.2188 128.877 30.3477 129.639 30.3477C130.318 30.3477 130.945 30.2539 131.52 30.0664C132.094 29.8672 132.598 29.5918 133.031 29.2402C133.465 28.877 133.805 28.4375 134.051 27.9219C134.309 27.4062 134.438 26.8203 134.438 26.1641C134.438 25.4258 134.273 24.793 133.945 24.2656C133.629 23.7383 133.195 23.2871 132.645 22.9121C132.105 22.5371 131.496 22.2207 130.816 21.9629C130.137 21.6934 129.445 21.4297 128.742 21.1719C127.91 20.8789 127.078 20.5742 126.246 20.2578C125.414 19.9297 124.67 19.5195 124.014 19.0273C123.357 18.5352 122.824 17.9375 122.414 17.2344C122.004 16.5195 121.799 15.6348 121.799 14.5801C121.799 13.6426 121.998 12.8105 122.396 12.084C122.795 11.3457 123.316 10.7246 123.961 10.2207C124.605 9.7168 125.355 9.33594 126.211 9.07812C127.066 8.80859 127.945 8.67383 128.848 8.67383C129.961 8.67383 130.986 8.90234 131.924 9.35938C132.873 9.81641 133.611 10.5137 134.139 11.4512V9.06055H136.266V15.6172H134.139C134.139 14.9258 133.992 14.2812 133.699 13.6836C133.418 13.0742 133.031 12.5586 132.539 12.1367C132.047 11.7031 131.484 11.3633 130.852 11.1172C130.219 10.8594 129.551 10.7305 128.848 10.7305C128.227 10.7305 127.635 10.8008 127.072 10.9414C126.51 11.082 126.018 11.3105 125.596 11.627C125.174 11.9316 124.834 12.3301 124.576 12.8223C124.33 13.3145 124.207 13.9004 124.207 14.5801C124.207 15.1777 124.354 15.6875 124.646 16.1094C124.951 16.5312 125.355 16.9062 125.859 17.2344C126.363 17.5508 126.943 17.8438 127.6 18.1133C128.268 18.3711 128.947 18.6348 129.639 18.9043C130.506 19.209 131.367 19.5488 132.223 19.9238C133.078 20.2988 133.846 20.75 134.525 21.2773C135.205 21.8047 135.762 22.4551 136.195 23.2285C136.629 23.9902 136.846 24.9219 136.846 26.0234ZM157.078 16.8125H155.021V11.1172H150.1V29.9434H153.791V32H143.965V29.9434H147.674V11.1172H142.752V16.8125H140.695V9.06055H157.078V16.8125ZM177.346 20.5566C177.346 22.0918 177.188 23.5742 176.871 25.0039C176.555 26.4336 176.051 27.6934 175.359 28.7832C174.668 29.873 173.76 30.752 172.635 31.4199C171.521 32.0762 170.162 32.4043 168.557 32.4043C166.951 32.4043 165.586 32.0762 164.461 31.4199C163.348 30.752 162.439 29.873 161.736 28.7832C161.045 27.6934 160.547 26.4336 160.242 25.0039C159.926 23.5742 159.768 22.0918 159.768 20.5566C159.768 19.0215 159.926 17.5391 160.242 16.1094C160.547 14.6797 161.051 13.4141 161.754 12.3125C162.469 11.2109 163.383 10.332 164.496 9.67578C165.621 9.00781 166.975 8.67383 168.557 8.67383C170.139 8.67383 171.486 9.00781 172.6 9.67578C173.725 10.332 174.633 11.2109 175.324 12.3125C176.016 13.4141 176.525 14.6797 176.854 16.1094C177.182 17.5391 177.346 19.0215 177.346 20.5566ZM174.92 20.5566C174.92 19.0449 174.773 17.6855 174.48 16.4785C174.199 15.2598 173.789 14.2227 173.25 13.3672C172.711 12.5117 172.043 11.8613 171.246 11.416C170.461 10.959 169.564 10.7305 168.557 10.7305C167.303 10.7305 166.266 11.0234 165.445 11.6094C164.637 12.1953 163.986 12.9629 163.494 13.9121C163.002 14.8613 162.656 15.916 162.457 17.0762C162.27 18.2363 162.176 19.3965 162.176 20.5566C162.176 21.7051 162.27 22.8652 162.457 24.0371C162.656 25.1973 163.002 26.2461 163.494 27.1836C163.986 28.1094 164.637 28.8711 165.445 29.4688C166.266 30.0547 167.303 30.3477 168.557 30.3477C169.799 30.3477 170.83 30.0547 171.65 29.4688C172.471 28.8711 173.127 28.1094 173.619 27.1836C174.111 26.2461 174.451 25.1973 174.639 24.0371C174.826 22.8652 174.92 21.7051 174.92 20.5566ZM196.348 15.6172C196.348 17.832 195.656 19.4785 194.273 20.5566C192.891 21.6348 190.951 22.1738 188.455 22.1738H183.27V32H180.861V9.06055H188.42C190.939 9.06055 192.891 9.61133 194.273 10.7129C195.656 11.8027 196.348 13.4375 196.348 15.6172ZM193.939 15.6172C193.939 14.0352 193.441 12.8926 192.445 12.1895C191.449 11.4746 190.119 11.1172 188.455 11.1172H183.27V20.1172H188.455C190.119 20.1172 191.449 19.7656 192.445 19.0625C193.441 18.3477 193.939 17.1992 193.939 15.6172ZM234.826 32H220.166V9.06055H222.574V29.9434H234.826V32ZM255.955 20.5566C255.955 22.0918 255.797 23.5742 255.48 25.0039C255.164 26.4336 254.66 27.6934 253.969 28.7832C253.277 29.873 252.369 30.752 251.244 31.4199C250.131 32.0762 248.771 32.4043 247.166 32.4043C245.561 32.4043 244.195 32.0762 243.07 31.4199C241.957 30.752 241.049 29.873 240.346 28.7832C239.654 27.6934 239.156 26.4336 238.852 25.0039C238.535 23.5742 238.377 22.0918 238.377 20.5566C238.377 19.0215 238.535 17.5391 238.852 16.1094C239.156 14.6797 239.66 13.4141 240.363 12.3125C241.078 11.2109 241.992 10.332 243.105 9.67578C244.23 9.00781 245.584 8.67383 247.166 8.67383C248.748 8.67383 250.096 9.00781 251.209 9.67578C252.334 10.332 253.242 11.2109 253.934 12.3125C254.625 13.4141 255.135 14.6797 255.463 16.1094C255.791 17.5391 255.955 19.0215 255.955 20.5566ZM253.529 20.5566C253.529 19.0449 253.383 17.6855 253.09 16.4785C252.809 15.2598 252.398 14.2227 251.859 13.3672C251.32 12.5117 250.652 11.8613 249.855 11.416C249.07 10.959 248.174 10.7305 247.166 10.7305C245.912 10.7305 244.875 11.0234 244.055 11.6094C243.246 12.1953 242.596 12.9629 242.104 13.9121C241.611 14.8613 241.266 15.916 241.066 17.0762C240.879 18.2363 240.785 19.3965 240.785 20.5566C240.785 21.7051 240.879 22.8652 241.066 24.0371C241.266 25.1973 241.611 26.2461 242.104 27.1836C242.596 28.1094 243.246 28.8711 244.055 29.4688C244.875 30.0547 245.912 30.3477 247.166 30.3477C248.408 30.3477 249.439 30.0547 250.26 29.4688C251.08 28.8711 251.736 28.1094 252.229 27.1836C252.721 26.2461 253.061 25.1973 253.248 24.0371C253.436 22.8652 253.529 21.7051 253.529 20.5566ZM275.607 20.5566C275.607 22.0918 275.449 23.5742 275.133 25.0039C274.816 26.4336 274.312 27.6934 273.621 28.7832C272.93 29.873 272.021 30.752 270.896 31.4199C269.783 32.0762 268.424 32.4043 266.818 32.4043C265.213 32.4043 263.848 32.0762 262.723 31.4199C261.609 30.752 260.701 29.873 259.998 28.7832C259.307 27.6934 258.809 26.4336 258.504 25.0039C258.188 23.5742 258.029 22.0918 258.029 20.5566C258.029 19.0215 258.188 17.5391 258.504 16.1094C258.809 14.6797 259.312 13.4141 260.016 12.3125C260.73 11.2109 261.645 10.332 262.758 9.67578C263.883 9.00781 265.236 8.67383 266.818 8.67383C268.4 8.67383 269.748 9.00781 270.861 9.67578C271.986 10.332 272.895 11.2109 273.586 12.3125C274.277 13.4141 274.787 14.6797 275.115 16.1094C275.443 17.5391 275.607 19.0215 275.607 20.5566ZM273.182 20.5566C273.182 19.0449 273.035 17.6855 272.742 16.4785C272.461 15.2598 272.051 14.2227 271.512 13.3672C270.973 12.5117 270.305 11.8613 269.508 11.416C268.723 10.959 267.826 10.7305 266.818 10.7305C265.564 10.7305 264.527 11.0234 263.707 11.6094C262.898 12.1953 262.248 12.9629 261.756 13.9121C261.264 14.8613 260.918 15.916 260.719 17.0762C260.531 18.2363 260.438 19.3965 260.438 20.5566C260.438 21.7051 260.531 22.8652 260.719 24.0371C260.918 25.1973 261.264 26.2461 261.756 27.1836C262.248 28.1094 262.898 28.8711 263.707 29.4688C264.527 30.0547 265.564 30.3477 266.818 30.3477C268.061 30.3477 269.092 30.0547 269.912 29.4688C270.732 28.8711 271.389 28.1094 271.881 27.1836C272.373 26.2461 272.713 25.1973 272.9 24.0371C273.088 22.8652 273.182 21.7051 273.182 20.5566ZM294.539 32H291.586L283.957 20.7676L281.531 23.4746V32H279.123V9.06055H281.531V20.2227L291.357 9.06055H294.539L285.539 19.0801L294.539 32ZM311.01 32H301.184V29.9434H304.893V11.1172H301.184V9.06055H311.01V11.1172H307.318V29.9434H311.01V32ZM333.088 32H330.1L320.836 12.5938V32H318.428V9.06055H321.82L330.662 27.5703V9.06055H333.088V32ZM354.498 20.5918C354.498 22.1504 354.334 23.6387 354.006 25.0566C353.689 26.4746 353.174 27.7285 352.459 28.8184C351.756 29.9082 350.842 30.7812 349.717 31.4375C348.604 32.082 347.256 32.4043 345.674 32.4043C344.068 32.4043 342.709 32.0762 341.596 31.4199C340.482 30.752 339.568 29.873 338.854 28.7832C338.15 27.6934 337.641 26.4336 337.324 25.0039C337.02 23.5742 336.867 22.0918 336.867 20.5566C336.867 19.0215 337.02 17.5391 337.324 16.1094C337.641 14.6797 338.15 13.4141 338.854 12.3125C339.568 11.2109 340.482 10.332 341.596 9.67578C342.709 9.00781 344.068 8.67383 345.674 8.67383C347.092 8.67383 348.305 8.92578 349.312 9.42969C350.32 9.93359 351.064 10.7012 351.545 11.7324V9.06055H353.602V16.584H351.545C351.545 15.752 351.387 14.9785 351.07 14.2637C350.766 13.5371 350.35 12.916 349.822 12.4004C349.295 11.8848 348.668 11.4805 347.941 11.1875C347.227 10.8828 346.471 10.7305 345.674 10.7305C344.432 10.7305 343.4 11.0234 342.58 11.6094C341.771 12.1953 341.121 12.9629 340.629 13.9121C340.137 14.8613 339.785 15.916 339.574 17.0762C339.375 18.2363 339.275 19.3965 339.275 20.5566C339.275 21.7051 339.375 22.8652 339.574 24.0371C339.785 25.1973 340.137 26.2461 340.629 27.1836C341.121 28.1094 341.771 28.8711 342.58 29.4688C343.4 30.0547 344.432 30.3477 345.674 30.3477C347.525 30.3477 348.984 29.6328 350.051 28.2031C351.117 26.7734 351.75 24.7637 351.949 22.1738H346.869V20.1172H354.498V20.5918Z" fill="#FF0004"/>
</g>
<g filter="url(#filter1_d_676_1810)">
<path d="M21.2676 19.5566C21.2676 21.0918 21.1035 22.5566 20.7754 23.9512C20.459 25.334 19.9434 26.5527 19.2285 27.6074C18.5254 28.6504 17.6113 29.4766 16.4863 30.0859C15.373 30.6953 14.0254 31 12.4434 31H4.99023V8.06055H12.4434C14.002 8.06055 15.3379 8.37695 16.4512 9.00977C17.5762 9.63086 18.4902 10.4688 19.1934 11.5234C19.9082 12.5781 20.4297 13.7969 20.7578 15.1797C21.0977 16.5625 21.2676 18.0215 21.2676 19.5566ZM18.8594 19.5566C18.8594 16.5566 18.291 14.2363 17.1543 12.5957C16.0293 10.9434 14.459 10.1172 12.4434 10.1172H7.39844V28.9434H12.4434C14.459 28.9434 16.0293 28.1289 17.1543 26.5C18.291 24.8711 18.8594 22.5566 18.8594 19.5566ZM40.7793 19.5566C40.7793 21.0918 40.6211 22.5742 40.3047 24.0039C39.9883 25.4336 39.4844 26.6934 38.793 27.7832C38.1016 28.873 37.1934 29.752 36.0684 30.4199C34.9551 31.0762 33.5957 31.4043 31.9902 31.4043C30.3848 31.4043 29.0195 31.0762 27.8945 30.4199C26.7812 29.752 25.873 28.873 25.1699 27.7832C24.4785 26.6934 23.9805 25.4336 23.6758 24.0039C23.3594 22.5742 23.2012 21.0918 23.2012 19.5566C23.2012 18.0215 23.3594 16.5391 23.6758 15.1094C23.9805 13.6797 24.4844 12.4141 25.1875 11.3125C25.9023 10.2109 26.8164 9.33203 27.9297 8.67578C29.0547 8.00781 30.4082 7.67383 31.9902 7.67383C33.5723 7.67383 34.9199 8.00781 36.0332 8.67578C37.1582 9.33203 38.0664 10.2109 38.7578 11.3125C39.4492 12.4141 39.959 13.6797 40.2871 15.1094C40.6152 16.5391 40.7793 18.0215 40.7793 19.5566ZM38.3535 19.5566C38.3535 18.0449 38.207 16.6855 37.9141 15.4785C37.6328 14.2598 37.2227 13.2227 36.6836 12.3672C36.1445 11.5117 35.4766 10.8613 34.6797 10.416C33.8945 9.95898 32.998 9.73047 31.9902 9.73047C30.7363 9.73047 29.6992 10.0234 28.8789 10.6094C28.0703 11.1953 27.4199 11.9629 26.9277 12.9121C26.4355 13.8613 26.0898 14.916 25.8906 16.0762C25.7031 17.2363 25.6094 18.3965 25.6094 19.5566C25.6094 20.7051 25.7031 21.8652 25.8906 23.0371C26.0898 24.1973 26.4355 25.2461 26.9277 26.1836C27.4199 27.1094 28.0703 27.8711 28.8789 28.4688C29.6992 29.0547 30.7363 29.3477 31.9902 29.3477C33.2324 29.3477 34.2637 29.0547 35.084 28.4688C35.9043 27.8711 36.5605 27.1094 37.0527 26.1836C37.5449 25.2461 37.8848 24.1973 38.0723 23.0371C38.2598 21.8652 38.3535 20.7051 38.3535 19.5566ZM58.9551 31H55.9668L46.7031 11.5938V31H44.2949V8.06055H47.6875L56.5293 26.5703V8.06055H58.9551V31ZM66.3555 8.06055H71.9805V11.8926C71.9805 12.7012 71.8574 13.4688 71.6113 14.1953C71.377 14.9102 71.0254 15.5371 70.5566 16.0762C70.0879 16.6152 69.502 17.0488 68.7988 17.377C68.1074 17.6934 67.293 17.8516 66.3555 17.8516V15.8125C68.7344 15.8125 69.9238 14.5059 69.9238 11.8926V11.3477H66.3555V8.06055ZM99.1211 15.8125H97.0645V10.1172H92.1426V28.9434H95.834V31H86.0078V28.9434H89.7168V10.1172H84.7949V15.8125H82.7383V8.06055H99.1211V15.8125ZM137.846 25.0234C137.846 25.9844 137.646 26.8574 137.248 27.6426C136.85 28.416 136.316 29.084 135.648 29.6465C134.98 30.209 134.213 30.6426 133.346 30.9473C132.479 31.252 131.576 31.4043 130.639 31.4043C129.35 31.4043 128.166 31.1641 127.088 30.6836C126.01 30.2031 125.154 29.4941 124.521 28.5566V31H122.482V24.0215H124.521C124.521 24.8066 124.703 25.5273 125.066 26.1836C125.43 26.8281 125.893 27.3848 126.455 27.8535C127.018 28.3223 127.662 28.6914 128.389 28.9609C129.127 29.2188 129.877 29.3477 130.639 29.3477C131.318 29.3477 131.945 29.2539 132.52 29.0664C133.094 28.8672 133.598 28.5918 134.031 28.2402C134.465 27.877 134.805 27.4375 135.051 26.9219C135.309 26.4062 135.438 25.8203 135.438 25.1641C135.438 24.4258 135.273 23.793 134.945 23.2656C134.629 22.7383 134.195 22.2871 133.645 21.9121C133.105 21.5371 132.496 21.2207 131.816 20.9629C131.137 20.6934 130.445 20.4297 129.742 20.1719C128.91 19.8789 128.078 19.5742 127.246 19.2578C126.414 18.9297 125.67 18.5195 125.014 18.0273C124.357 17.5352 123.824 16.9375 123.414 16.2344C123.004 15.5195 122.799 14.6348 122.799 13.5801C122.799 12.6426 122.998 11.8105 123.396 11.084C123.795 10.3457 124.316 9.72461 124.961 9.2207C125.605 8.7168 126.355 8.33594 127.211 8.07812C128.066 7.80859 128.945 7.67383 129.848 7.67383C130.961 7.67383 131.986 7.90234 132.924 8.35938C133.873 8.81641 134.611 9.51367 135.139 10.4512V8.06055H137.266V14.6172H135.139C135.139 13.9258 134.992 13.2812 134.699 12.6836C134.418 12.0742 134.031 11.5586 133.539 11.1367C133.047 10.7031 132.484 10.3633 131.852 10.1172C131.219 9.85937 130.551 9.73047 129.848 9.73047C129.227 9.73047 128.635 9.80078 128.072 9.94141C127.51 10.082 127.018 10.3105 126.596 10.627C126.174 10.9316 125.834 11.3301 125.576 11.8223C125.33 12.3145 125.207 12.9004 125.207 13.5801C125.207 14.1777 125.354 14.6875 125.646 15.1094C125.951 15.5312 126.355 15.9062 126.859 16.2344C127.363 16.5508 127.943 16.8438 128.6 17.1133C129.268 17.3711 129.947 17.6348 130.639 17.9043C131.506 18.209 132.367 18.5488 133.223 18.9238C134.078 19.2988 134.846 19.75 135.525 20.2773C136.205 20.8047 136.762 21.4551 137.195 22.2285C137.629 22.9902 137.846 23.9219 137.846 25.0234ZM158.078 15.8125H156.021V10.1172H151.1V28.9434H154.791V31H144.965V28.9434H148.674V10.1172H143.752V15.8125H141.695V8.06055H158.078V15.8125ZM178.346 19.5566C178.346 21.0918 178.188 22.5742 177.871 24.0039C177.555 25.4336 177.051 26.6934 176.359 27.7832C175.668 28.873 174.76 29.752 173.635 30.4199C172.521 31.0762 171.162 31.4043 169.557 31.4043C167.951 31.4043 166.586 31.0762 165.461 30.4199C164.348 29.752 163.439 28.873 162.736 27.7832C162.045 26.6934 161.547 25.4336 161.242 24.0039C160.926 22.5742 160.768 21.0918 160.768 19.5566C160.768 18.0215 160.926 16.5391 161.242 15.1094C161.547 13.6797 162.051 12.4141 162.754 11.3125C163.469 10.2109 164.383 9.33203 165.496 8.67578C166.621 8.00781 167.975 7.67383 169.557 7.67383C171.139 7.67383 172.486 8.00781 173.6 8.67578C174.725 9.33203 175.633 10.2109 176.324 11.3125C177.016 12.4141 177.525 13.6797 177.854 15.1094C178.182 16.5391 178.346 18.0215 178.346 19.5566ZM175.92 19.5566C175.92 18.0449 175.773 16.6855 175.48 15.4785C175.199 14.2598 174.789 13.2227 174.25 12.3672C173.711 11.5117 173.043 10.8613 172.246 10.416C171.461 9.95898 170.564 9.73047 169.557 9.73047C168.303 9.73047 167.266 10.0234 166.445 10.6094C165.637 11.1953 164.986 11.9629 164.494 12.9121C164.002 13.8613 163.656 14.916 163.457 16.0762C163.27 17.2363 163.176 18.3965 163.176 19.5566C163.176 20.7051 163.27 21.8652 163.457 23.0371C163.656 24.1973 164.002 25.2461 164.494 26.1836C164.986 27.1094 165.637 27.8711 166.445 28.4688C167.266 29.0547 168.303 29.3477 169.557 29.3477C170.799 29.3477 171.83 29.0547 172.65 28.4688C173.471 27.8711 174.127 27.1094 174.619 26.1836C175.111 25.2461 175.451 24.1973 175.639 23.0371C175.826 21.8652 175.92 20.7051 175.92 19.5566ZM197.348 14.6172C197.348 16.832 196.656 18.4785 195.273 19.5566C193.891 20.6348 191.951 21.1738 189.455 21.1738H184.27V31H181.861V8.06055H189.42C191.939 8.06055 193.891 8.61133 195.273 9.71289C196.656 10.8027 197.348 12.4375 197.348 14.6172ZM194.939 14.6172C194.939 13.0352 194.441 11.8926 193.445 11.1895C192.449 10.4746 191.119 10.1172 189.455 10.1172H184.27V19.1172H189.455C191.119 19.1172 192.449 18.7656 193.445 18.0625C194.441 17.3477 194.939 16.1992 194.939 14.6172ZM235.826 31H221.166V8.06055H223.574V28.9434H235.826V31ZM256.955 19.5566C256.955 21.0918 256.797 22.5742 256.48 24.0039C256.164 25.4336 255.66 26.6934 254.969 27.7832C254.277 28.873 253.369 29.752 252.244 30.4199C251.131 31.0762 249.771 31.4043 248.166 31.4043C246.561 31.4043 245.195 31.0762 244.07 30.4199C242.957 29.752 242.049 28.873 241.346 27.7832C240.654 26.6934 240.156 25.4336 239.852 24.0039C239.535 22.5742 239.377 21.0918 239.377 19.5566C239.377 18.0215 239.535 16.5391 239.852 15.1094C240.156 13.6797 240.66 12.4141 241.363 11.3125C242.078 10.2109 242.992 9.33203 244.105 8.67578C245.23 8.00781 246.584 7.67383 248.166 7.67383C249.748 7.67383 251.096 8.00781 252.209 8.67578C253.334 9.33203 254.242 10.2109 254.934 11.3125C255.625 12.4141 256.135 13.6797 256.463 15.1094C256.791 16.5391 256.955 18.0215 256.955 19.5566ZM254.529 19.5566C254.529 18.0449 254.383 16.6855 254.09 15.4785C253.809 14.2598 253.398 13.2227 252.859 12.3672C252.32 11.5117 251.652 10.8613 250.855 10.416C250.07 9.95898 249.174 9.73047 248.166 9.73047C246.912 9.73047 245.875 10.0234 245.055 10.6094C244.246 11.1953 243.596 11.9629 243.104 12.9121C242.611 13.8613 242.266 14.916 242.066 16.0762C241.879 17.2363 241.785 18.3965 241.785 19.5566C241.785 20.7051 241.879 21.8652 242.066 23.0371C242.266 24.1973 242.611 25.2461 243.104 26.1836C243.596 27.1094 244.246 27.8711 245.055 28.4688C245.875 29.0547 246.912 29.3477 248.166 29.3477C249.408 29.3477 250.439 29.0547 251.26 28.4688C252.08 27.8711 252.736 27.1094 253.229 26.1836C253.721 25.2461 254.061 24.1973 254.248 23.0371C254.436 21.8652 254.529 20.7051 254.529 19.5566ZM276.607 19.5566C276.607 21.0918 276.449 22.5742 276.133 24.0039C275.816 25.4336 275.312 26.6934 274.621 27.7832C273.93 28.873 273.021 29.752 271.896 30.4199C270.783 31.0762 269.424 31.4043 267.818 31.4043C266.213 31.4043 264.848 31.0762 263.723 30.4199C262.609 29.752 261.701 28.873 260.998 27.7832C260.307 26.6934 259.809 25.4336 259.504 24.0039C259.188 22.5742 259.029 21.0918 259.029 19.5566C259.029 18.0215 259.188 16.5391 259.504 15.1094C259.809 13.6797 260.312 12.4141 261.016 11.3125C261.73 10.2109 262.645 9.33203 263.758 8.67578C264.883 8.00781 266.236 7.67383 267.818 7.67383C269.4 7.67383 270.748 8.00781 271.861 8.67578C272.986 9.33203 273.895 10.2109 274.586 11.3125C275.277 12.4141 275.787 13.6797 276.115 15.1094C276.443 16.5391 276.607 18.0215 276.607 19.5566ZM274.182 19.5566C274.182 18.0449 274.035 16.6855 273.742 15.4785C273.461 14.2598 273.051 13.2227 272.512 12.3672C271.973 11.5117 271.305 10.8613 270.508 10.416C269.723 9.95898 268.826 9.73047 267.818 9.73047C266.564 9.73047 265.527 10.0234 264.707 10.6094C263.898 11.1953 263.248 11.9629 262.756 12.9121C262.264 13.8613 261.918 14.916 261.719 16.0762C261.531 17.2363 261.438 18.3965 261.438 19.5566C261.438 20.7051 261.531 21.8652 261.719 23.0371C261.918 24.1973 262.264 25.2461 262.756 26.1836C263.248 27.1094 263.898 27.8711 264.707 28.4688C265.527 29.0547 266.564 29.3477 267.818 29.3477C269.061 29.3477 270.092 29.0547 270.912 28.4688C271.732 27.8711 272.389 27.1094 272.881 26.1836C273.373 25.2461 273.713 24.1973 273.9 23.0371C274.088 21.8652 274.182 20.7051 274.182 19.5566ZM295.539 31H292.586L284.957 19.7676L282.531 22.4746V31H280.123V8.06055H282.531V19.2227L292.357 8.06055H295.539L286.539 18.0801L295.539 31ZM312.01 31H302.184V28.9434H305.893V10.1172H302.184V8.06055H312.01V10.1172H308.318V28.9434H312.01V31ZM334.088 31H331.1L321.836 11.5938V31H319.428V8.06055H322.82L331.662 26.5703V8.06055H334.088V31ZM355.498 19.5918C355.498 21.1504 355.334 22.6387 355.006 24.0566C354.689 25.4746 354.174 26.7285 353.459 27.8184C352.756 28.9082 351.842 29.7812 350.717 30.4375C349.604 31.082 348.256 31.4043 346.674 31.4043C345.068 31.4043 343.709 31.0762 342.596 30.4199C341.482 29.752 340.568 28.873 339.854 27.7832C339.15 26.6934 338.641 25.4336 338.324 24.0039C338.02 22.5742 337.867 21.0918 337.867 19.5566C337.867 18.0215 338.02 16.5391 338.324 15.1094C338.641 13.6797 339.15 12.4141 339.854 11.3125C340.568 10.2109 341.482 9.33203 342.596 8.67578C343.709 8.00781 345.068 7.67383 346.674 7.67383C348.092 7.67383 349.305 7.92578 350.312 8.42969C351.32 8.93359 352.064 9.70117 352.545 10.7324V8.06055H354.602V15.584H352.545C352.545 14.752 352.387 13.9785 352.07 13.2637C351.766 12.5371 351.35 11.916 350.822 11.4004C350.295 10.8848 349.668 10.4805 348.941 10.1875C348.227 9.88281 347.471 9.73047 346.674 9.73047C345.432 9.73047 344.4 10.0234 343.58 10.6094C342.771 11.1953 342.121 11.9629 341.629 12.9121C341.137 13.8613 340.785 14.916 340.574 16.0762C340.375 17.2363 340.275 18.3965 340.275 19.5566C340.275 20.7051 340.375 21.8652 340.574 23.0371C340.785 24.1973 341.137 25.2461 341.629 26.1836C342.121 27.1094 342.771 27.8711 343.58 28.4688C344.4 29.0547 345.432 29.3477 346.674 29.3477C348.525 29.3477 349.984 28.6328 351.051 27.2031C352.117 25.7734 352.75 23.7637 352.949 21.1738H347.869V19.1172H355.498V19.5918Z" fill="#FF5900"/>
</g>
<g filter="url(#filter2_d_676_1810)">
<path d="M22.2676 18.5566C22.2676 20.0918 22.1035 21.5566 21.7754 22.9512C21.459 24.334 20.9434 25.5527 20.2285 26.6074C19.5254 27.6504 18.6113 28.4766 17.4863 29.0859C16.373 29.6953 15.0254 30 13.4434 30H5.99023V7.06055H13.4434C15.002 7.06055 16.3379 7.37695 17.4512 8.00977C18.5762 8.63086 19.4902 9.46875 20.1934 10.5234C20.9082 11.5781 21.4297 12.7969 21.7578 14.1797C22.0977 15.5625 22.2676 17.0215 22.2676 18.5566ZM19.8594 18.5566C19.8594 15.5566 19.291 13.2363 18.1543 11.5957C17.0293 9.94336 15.459 9.11719 13.4434 9.11719H8.39844V27.9434H13.4434C15.459 27.9434 17.0293 27.1289 18.1543 25.5C19.291 23.8711 19.8594 21.5566 19.8594 18.5566ZM41.7793 18.5566C41.7793 20.0918 41.6211 21.5742 41.3047 23.0039C40.9883 24.4336 40.4844 25.6934 39.793 26.7832C39.1016 27.873 38.1934 28.752 37.0684 29.4199C35.9551 30.0762 34.5957 30.4043 32.9902 30.4043C31.3848 30.4043 30.0195 30.0762 28.8945 29.4199C27.7812 28.752 26.873 27.873 26.1699 26.7832C25.4785 25.6934 24.9805 24.4336 24.6758 23.0039C24.3594 21.5742 24.2012 20.0918 24.2012 18.5566C24.2012 17.0215 24.3594 15.5391 24.6758 14.1094C24.9805 12.6797 25.4844 11.4141 26.1875 10.3125C26.9023 9.21094 27.8164 8.33203 28.9297 7.67578C30.0547 7.00781 31.4082 6.67383 32.9902 6.67383C34.5723 6.67383 35.9199 7.00781 37.0332 7.67578C38.1582 8.33203 39.0664 9.21094 39.7578 10.3125C40.4492 11.4141 40.959 12.6797 41.2871 14.1094C41.6152 15.5391 41.7793 17.0215 41.7793 18.5566ZM39.3535 18.5566C39.3535 17.0449 39.207 15.6855 38.9141 14.4785C38.6328 13.2598 38.2227 12.2227 37.6836 11.3672C37.1445 10.5117 36.4766 9.86133 35.6797 9.41602C34.8945 8.95898 33.998 8.73047 32.9902 8.73047C31.7363 8.73047 30.6992 9.02344 29.8789 9.60938C29.0703 10.1953 28.4199 10.9629 27.9277 11.9121C27.4355 12.8613 27.0898 13.916 26.8906 15.0762C26.7031 16.2363 26.6094 17.3965 26.6094 18.5566C26.6094 19.7051 26.7031 20.8652 26.8906 22.0371C27.0898 23.1973 27.4355 24.2461 27.9277 25.1836C28.4199 26.1094 29.0703 26.8711 29.8789 27.4688C30.6992 28.0547 31.7363 28.3477 32.9902 28.3477C34.2324 28.3477 35.2637 28.0547 36.084 27.4688C36.9043 26.8711 37.5605 26.1094 38.0527 25.1836C38.5449 24.2461 38.8848 23.1973 39.0723 22.0371C39.2598 20.8652 39.3535 19.7051 39.3535 18.5566ZM59.9551 30H56.9668L47.7031 10.5938V30H45.2949V7.06055H48.6875L57.5293 25.5703V7.06055H59.9551V30ZM67.3555 7.06055H72.9805V10.8926C72.9805 11.7012 72.8574 12.4688 72.6113 13.1953C72.377 13.9102 72.0254 14.5371 71.5566 15.0762C71.0879 15.6152 70.502 16.0488 69.7988 16.377C69.1074 16.6934 68.293 16.8516 67.3555 16.8516V14.8125C69.7344 14.8125 70.9238 13.5059 70.9238 10.8926V10.3477H67.3555V7.06055ZM100.121 14.8125H98.0645V9.11719H93.1426V27.9434H96.834V30H87.0078V27.9434H90.7168V9.11719H85.7949V14.8125H83.7383V7.06055H100.121V14.8125ZM138.846 24.0234C138.846 24.9844 138.646 25.8574 138.248 26.6426C137.85 27.416 137.316 28.084 136.648 28.6465C135.98 29.209 135.213 29.6426 134.346 29.9473C133.479 30.252 132.576 30.4043 131.639 30.4043C130.35 30.4043 129.166 30.1641 128.088 29.6836C127.01 29.2031 126.154 28.4941 125.521 27.5566V30H123.482V23.0215H125.521C125.521 23.8066 125.703 24.5273 126.066 25.1836C126.43 25.8281 126.893 26.3848 127.455 26.8535C128.018 27.3223 128.662 27.6914 129.389 27.9609C130.127 28.2188 130.877 28.3477 131.639 28.3477C132.318 28.3477 132.945 28.2539 133.52 28.0664C134.094 27.8672 134.598 27.5918 135.031 27.2402C135.465 26.877 135.805 26.4375 136.051 25.9219C136.309 25.4062 136.438 24.8203 136.438 24.1641C136.438 23.4258 136.273 22.793 135.945 22.2656C135.629 21.7383 135.195 21.2871 134.645 20.9121C134.105 20.5371 133.496 20.2207 132.816 19.9629C132.137 19.6934 131.445 19.4297 130.742 19.1719C129.91 18.8789 129.078 18.5742 128.246 18.2578C127.414 17.9297 126.67 17.5195 126.014 17.0273C125.357 16.5352 124.824 15.9375 124.414 15.2344C124.004 14.5195 123.799 13.6348 123.799 12.5801C123.799 11.6426 123.998 10.8105 124.396 10.084C124.795 9.3457 125.316 8.72461 125.961 8.2207C126.605 7.7168 127.355 7.33594 128.211 7.07812C129.066 6.80859 129.945 6.67383 130.848 6.67383C131.961 6.67383 132.986 6.90234 133.924 7.35938C134.873 7.81641 135.611 8.51367 136.139 9.45117V7.06055H138.266V13.6172H136.139C136.139 12.9258 135.992 12.2812 135.699 11.6836C135.418 11.0742 135.031 10.5586 134.539 10.1367C134.047 9.70312 133.484 9.36328 132.852 9.11719C132.219 8.85937 131.551 8.73047 130.848 8.73047C130.227 8.73047 129.635 8.80078 129.072 8.94141C128.51 9.08203 128.018 9.31055 127.596 9.62695C127.174 9.93164 126.834 10.3301 126.576 10.8223C126.33 11.3145 126.207 11.9004 126.207 12.5801C126.207 13.1777 126.354 13.6875 126.646 14.1094C126.951 14.5312 127.355 14.9062 127.859 15.2344C128.363 15.5508 128.943 15.8438 129.6 16.1133C130.268 16.3711 130.947 16.6348 131.639 16.9043C132.506 17.209 133.367 17.5488 134.223 17.9238C135.078 18.2988 135.846 18.75 136.525 19.2773C137.205 19.8047 137.762 20.4551 138.195 21.2285C138.629 21.9902 138.846 22.9219 138.846 24.0234ZM159.078 14.8125H157.021V9.11719H152.1V27.9434H155.791V30H145.965V27.9434H149.674V9.11719H144.752V14.8125H142.695V7.06055H159.078V14.8125ZM179.346 18.5566C179.346 20.0918 179.188 21.5742 178.871 23.0039C178.555 24.4336 178.051 25.6934 177.359 26.7832C176.668 27.873 175.76 28.752 174.635 29.4199C173.521 30.0762 172.162 30.4043 170.557 30.4043C168.951 30.4043 167.586 30.0762 166.461 29.4199C165.348 28.752 164.439 27.873 163.736 26.7832C163.045 25.6934 162.547 24.4336 162.242 23.0039C161.926 21.5742 161.768 20.0918 161.768 18.5566C161.768 17.0215 161.926 15.5391 162.242 14.1094C162.547 12.6797 163.051 11.4141 163.754 10.3125C164.469 9.21094 165.383 8.33203 166.496 7.67578C167.621 7.00781 168.975 6.67383 170.557 6.67383C172.139 6.67383 173.486 7.00781 174.6 7.67578C175.725 8.33203 176.633 9.21094 177.324 10.3125C178.016 11.4141 178.525 12.6797 178.854 14.1094C179.182 15.5391 179.346 17.0215 179.346 18.5566ZM176.92 18.5566C176.92 17.0449 176.773 15.6855 176.48 14.4785C176.199 13.2598 175.789 12.2227 175.25 11.3672C174.711 10.5117 174.043 9.86133 173.246 9.41602C172.461 8.95898 171.564 8.73047 170.557 8.73047C169.303 8.73047 168.266 9.02344 167.445 9.60938C166.637 10.1953 165.986 10.9629 165.494 11.9121C165.002 12.8613 164.656 13.916 164.457 15.0762C164.27 16.2363 164.176 17.3965 164.176 18.5566C164.176 19.7051 164.27 20.8652 164.457 22.0371C164.656 23.1973 165.002 24.2461 165.494 25.1836C165.986 26.1094 166.637 26.8711 167.445 27.4688C168.266 28.0547 169.303 28.3477 170.557 28.3477C171.799 28.3477 172.83 28.0547 173.65 27.4688C174.471 26.8711 175.127 26.1094 175.619 25.1836C176.111 24.2461 176.451 23.1973 176.639 22.0371C176.826 20.8652 176.92 19.7051 176.92 18.5566ZM198.348 13.6172C198.348 15.832 197.656 17.4785 196.273 18.5566C194.891 19.6348 192.951 20.1738 190.455 20.1738H185.27V30H182.861V7.06055H190.42C192.939 7.06055 194.891 7.61133 196.273 8.71289C197.656 9.80273 198.348 11.4375 198.348 13.6172ZM195.939 13.6172C195.939 12.0352 195.441 10.8926 194.445 10.1895C193.449 9.47461 192.119 9.11719 190.455 9.11719H185.27V18.1172H190.455C192.119 18.1172 193.449 17.7656 194.445 17.0625C195.441 16.3477 195.939 15.1992 195.939 13.6172ZM236.826 30H222.166V7.06055H224.574V27.9434H236.826V30ZM257.955 18.5566C257.955 20.0918 257.797 21.5742 257.48 23.0039C257.164 24.4336 256.66 25.6934 255.969 26.7832C255.277 27.873 254.369 28.752 253.244 29.4199C252.131 30.0762 250.771 30.4043 249.166 30.4043C247.561 30.4043 246.195 30.0762 245.07 29.4199C243.957 28.752 243.049 27.873 242.346 26.7832C241.654 25.6934 241.156 24.4336 240.852 23.0039C240.535 21.5742 240.377 20.0918 240.377 18.5566C240.377 17.0215 240.535 15.5391 240.852 14.1094C241.156 12.6797 241.66 11.4141 242.363 10.3125C243.078 9.21094 243.992 8.33203 245.105 7.67578C246.23 7.00781 247.584 6.67383 249.166 6.67383C250.748 6.67383 252.096 7.00781 253.209 7.67578C254.334 8.33203 255.242 9.21094 255.934 10.3125C256.625 11.4141 257.135 12.6797 257.463 14.1094C257.791 15.5391 257.955 17.0215 257.955 18.5566ZM255.529 18.5566C255.529 17.0449 255.383 15.6855 255.09 14.4785C254.809 13.2598 254.398 12.2227 253.859 11.3672C253.32 10.5117 252.652 9.86133 251.855 9.41602C251.07 8.95898 250.174 8.73047 249.166 8.73047C247.912 8.73047 246.875 9.02344 246.055 9.60938C245.246 10.1953 244.596 10.9629 244.104 11.9121C243.611 12.8613 243.266 13.916 243.066 15.0762C242.879 16.2363 242.785 17.3965 242.785 18.5566C242.785 19.7051 242.879 20.8652 243.066 22.0371C243.266 23.1973 243.611 24.2461 244.104 25.1836C244.596 26.1094 245.246 26.8711 246.055 27.4688C246.875 28.0547 247.912 28.3477 249.166 28.3477C250.408 28.3477 251.439 28.0547 252.26 27.4688C253.08 26.8711 253.736 26.1094 254.229 25.1836C254.721 24.2461 255.061 23.1973 255.248 22.0371C255.436 20.8652 255.529 19.7051 255.529 18.5566ZM277.607 18.5566C277.607 20.0918 277.449 21.5742 277.133 23.0039C276.816 24.4336 276.312 25.6934 275.621 26.7832C274.93 27.873 274.021 28.752 272.896 29.4199C271.783 30.0762 270.424 30.4043 268.818 30.4043C267.213 30.4043 265.848 30.0762 264.723 29.4199C263.609 28.752 262.701 27.873 261.998 26.7832C261.307 25.6934 260.809 24.4336 260.504 23.0039C260.188 21.5742 260.029 20.0918 260.029 18.5566C260.029 17.0215 260.188 15.5391 260.504 14.1094C260.809 12.6797 261.312 11.4141 262.016 10.3125C262.73 9.21094 263.645 8.33203 264.758 7.67578C265.883 7.00781 267.236 6.67383 268.818 6.67383C270.4 6.67383 271.748 7.00781 272.861 7.67578C273.986 8.33203 274.895 9.21094 275.586 10.3125C276.277 11.4141 276.787 12.6797 277.115 14.1094C277.443 15.5391 277.607 17.0215 277.607 18.5566ZM275.182 18.5566C275.182 17.0449 275.035 15.6855 274.742 14.4785C274.461 13.2598 274.051 12.2227 273.512 11.3672C272.973 10.5117 272.305 9.86133 271.508 9.41602C270.723 8.95898 269.826 8.73047 268.818 8.73047C267.564 8.73047 266.527 9.02344 265.707 9.60938C264.898 10.1953 264.248 10.9629 263.756 11.9121C263.264 12.8613 262.918 13.916 262.719 15.0762C262.531 16.2363 262.438 17.3965 262.438 18.5566C262.438 19.7051 262.531 20.8652 262.719 22.0371C262.918 23.1973 263.264 24.2461 263.756 25.1836C264.248 26.1094 264.898 26.8711 265.707 27.4688C266.527 28.0547 267.564 28.3477 268.818 28.3477C270.061 28.3477 271.092 28.0547 271.912 27.4688C272.732 26.8711 273.389 26.1094 273.881 25.1836C274.373 24.2461 274.713 23.1973 274.9 22.0371C275.088 20.8652 275.182 19.7051 275.182 18.5566ZM296.539 30H293.586L285.957 18.7676L283.531 21.4746V30H281.123V7.06055H283.531V18.2227L293.357 7.06055H296.539L287.539 17.0801L296.539 30ZM313.01 30H303.184V27.9434H306.893V9.11719H303.184V7.06055H313.01V9.11719H309.318V27.9434H313.01V30ZM335.088 30H332.1L322.836 10.5938V30H320.428V7.06055H323.82L332.662 25.5703V7.06055H335.088V30ZM356.498 18.5918C356.498 20.1504 356.334 21.6387 356.006 23.0566C355.689 24.4746 355.174 25.7285 354.459 26.8184C353.756 27.9082 352.842 28.7812 351.717 29.4375C350.604 30.082 349.256 30.4043 347.674 30.4043C346.068 30.4043 344.709 30.0762 343.596 29.4199C342.482 28.752 341.568 27.873 340.854 26.7832C340.15 25.6934 339.641 24.4336 339.324 23.0039C339.02 21.5742 338.867 20.0918 338.867 18.5566C338.867 17.0215 339.02 15.5391 339.324 14.1094C339.641 12.6797 340.15 11.4141 340.854 10.3125C341.568 9.21094 342.482 8.33203 343.596 7.67578C344.709 7.00781 346.068 6.67383 347.674 6.67383C349.092 6.67383 350.305 6.92578 351.312 7.42969C352.32 7.93359 353.064 8.70117 353.545 9.73242V7.06055H355.602V14.584H353.545C353.545 13.752 353.387 12.9785 353.07 12.2637C352.766 11.5371 352.35 10.916 351.822 10.4004C351.295 9.88477 350.668 9.48047 349.941 9.1875C349.227 8.88281 348.471 8.73047 347.674 8.73047C346.432 8.73047 345.4 9.02344 344.58 9.60938C343.771 10.1953 343.121 10.9629 342.629 11.9121C342.137 12.8613 341.785 13.916 341.574 15.0762C341.375 16.2363 341.275 17.3965 341.275 18.5566C341.275 19.7051 341.375 20.8652 341.574 22.0371C341.785 23.1973 342.137 24.2461 342.629 25.1836C343.121 26.1094 343.771 26.8711 344.58 27.4688C345.4 28.0547 346.432 28.3477 347.674 28.3477C349.525 28.3477 350.984 27.6328 352.051 26.2031C353.117 24.7734 353.75 22.7637 353.949 20.1738H348.869V18.1172H356.498V18.5918Z" fill="#FFE100"/>
</g>
<g filter="url(#filter3_d_676_1810)">
<path d="M23.2676 17.5566C23.2676 19.0918 23.1035 20.5566 22.7754 21.9512C22.459 23.334 21.9434 24.5527 21.2285 25.6074C20.5254 26.6504 19.6113 27.4766 18.4863 28.0859C17.373 28.6953 16.0254 29 14.4434 29H6.99023V6.06055H14.4434C16.002 6.06055 17.3379 6.37695 18.4512 7.00977C19.5762 7.63086 20.4902 8.46875 21.1934 9.52344C21.9082 10.5781 22.4297 11.7969 22.7578 13.1797C23.0977 14.5625 23.2676 16.0215 23.2676 17.5566ZM20.8594 17.5566C20.8594 14.5566 20.291 12.2363 19.1543 10.5957C18.0293 8.94336 16.459 8.11719 14.4434 8.11719H9.39844V26.9434H14.4434C16.459 26.9434 18.0293 26.1289 19.1543 24.5C20.291 22.8711 20.8594 20.5566 20.8594 17.5566ZM42.7793 17.5566C42.7793 19.0918 42.6211 20.5742 42.3047 22.0039C41.9883 23.4336 41.4844 24.6934 40.793 25.7832C40.1016 26.873 39.1934 27.752 38.0684 28.4199C36.9551 29.0762 35.5957 29.4043 33.9902 29.4043C32.3848 29.4043 31.0195 29.0762 29.8945 28.4199C28.7812 27.752 27.873 26.873 27.1699 25.7832C26.4785 24.6934 25.9805 23.4336 25.6758 22.0039C25.3594 20.5742 25.2012 19.0918 25.2012 17.5566C25.2012 16.0215 25.3594 14.5391 25.6758 13.1094C25.9805 11.6797 26.4844 10.4141 27.1875 9.3125C27.9023 8.21094 28.8164 7.33203 29.9297 6.67578C31.0547 6.00781 32.4082 5.67383 33.9902 5.67383C35.5723 5.67383 36.9199 6.00781 38.0332 6.67578C39.1582 7.33203 40.0664 8.21094 40.7578 9.3125C41.4492 10.4141 41.959 11.6797 42.2871 13.1094C42.6152 14.5391 42.7793 16.0215 42.7793 17.5566ZM40.3535 17.5566C40.3535 16.0449 40.207 14.6855 39.9141 13.4785C39.6328 12.2598 39.2227 11.2227 38.6836 10.3672C38.1445 9.51172 37.4766 8.86133 36.6797 8.41602C35.8945 7.95898 34.998 7.73047 33.9902 7.73047C32.7363 7.73047 31.6992 8.02344 30.8789 8.60938C30.0703 9.19531 29.4199 9.96289 28.9277 10.9121C28.4355 11.8613 28.0898 12.916 27.8906 14.0762C27.7031 15.2363 27.6094 16.3965 27.6094 17.5566C27.6094 18.7051 27.7031 19.8652 27.8906 21.0371C28.0898 22.1973 28.4355 23.2461 28.9277 24.1836C29.4199 25.1094 30.0703 25.8711 30.8789 26.4688C31.6992 27.0547 32.7363 27.3477 33.9902 27.3477C35.2324 27.3477 36.2637 27.0547 37.084 26.4688C37.9043 25.8711 38.5605 25.1094 39.0527 24.1836C39.5449 23.2461 39.8848 22.1973 40.0723 21.0371C40.2598 19.8652 40.3535 18.7051 40.3535 17.5566ZM60.9551 29H57.9668L48.7031 9.59375V29H46.2949V6.06055H49.6875L58.5293 24.5703V6.06055H60.9551V29ZM68.3555 6.06055H73.9805V9.89258C73.9805 10.7012 73.8574 11.4688 73.6113 12.1953C73.377 12.9102 73.0254 13.5371 72.5566 14.0762C72.0879 14.6152 71.502 15.0488 70.7988 15.377C70.1074 15.6934 69.293 15.8516 68.3555 15.8516V13.8125C70.7344 13.8125 71.9238 12.5059 71.9238 9.89258V9.34766H68.3555V6.06055ZM101.121 13.8125H99.0645V8.11719H94.1426V26.9434H97.834V29H88.0078V26.9434H91.7168V8.11719H86.7949V13.8125H84.7383V6.06055H101.121V13.8125ZM139.846 23.0234C139.846 23.9844 139.646 24.8574 139.248 25.6426C138.85 26.416 138.316 27.084 137.648 27.6465C136.98 28.209 136.213 28.6426 135.346 28.9473C134.479 29.252 133.576 29.4043 132.639 29.4043C131.35 29.4043 130.166 29.1641 129.088 28.6836C128.01 28.2031 127.154 27.4941 126.521 26.5566V29H124.482V22.0215H126.521C126.521 22.8066 126.703 23.5273 127.066 24.1836C127.43 24.8281 127.893 25.3848 128.455 25.8535C129.018 26.3223 129.662 26.6914 130.389 26.9609C131.127 27.2188 131.877 27.3477 132.639 27.3477C133.318 27.3477 133.945 27.2539 134.52 27.0664C135.094 26.8672 135.598 26.5918 136.031 26.2402C136.465 25.877 136.805 25.4375 137.051 24.9219C137.309 24.4062 137.438 23.8203 137.438 23.1641C137.438 22.4258 137.273 21.793 136.945 21.2656C136.629 20.7383 136.195 20.2871 135.645 19.9121C135.105 19.5371 134.496 19.2207 133.816 18.9629C133.137 18.6934 132.445 18.4297 131.742 18.1719C130.91 17.8789 130.078 17.5742 129.246 17.2578C128.414 16.9297 127.67 16.5195 127.014 16.0273C126.357 15.5352 125.824 14.9375 125.414 14.2344C125.004 13.5195 124.799 12.6348 124.799 11.5801C124.799 10.6426 124.998 9.81055 125.396 9.08398C125.795 8.3457 126.316 7.72461 126.961 7.2207C127.605 6.7168 128.355 6.33594 129.211 6.07812C130.066 5.80859 130.945 5.67383 131.848 5.67383C132.961 5.67383 133.986 5.90234 134.924 6.35938C135.873 6.81641 136.611 7.51367 137.139 8.45117V6.06055H139.266V12.6172H137.139C137.139 11.9258 136.992 11.2812 136.699 10.6836C136.418 10.0742 136.031 9.55859 135.539 9.13672C135.047 8.70312 134.484 8.36328 133.852 8.11719C133.219 7.85937 132.551 7.73047 131.848 7.73047C131.227 7.73047 130.635 7.80078 130.072 7.94141C129.51 8.08203 129.018 8.31055 128.596 8.62695C128.174 8.93164 127.834 9.33008 127.576 9.82227C127.33 10.3145 127.207 10.9004 127.207 11.5801C127.207 12.1777 127.354 12.6875 127.646 13.1094C127.951 13.5312 128.355 13.9062 128.859 14.2344C129.363 14.5508 129.943 14.8438 130.6 15.1133C131.268 15.3711 131.947 15.6348 132.639 15.9043C133.506 16.209 134.367 16.5488 135.223 16.9238C136.078 17.2988 136.846 17.75 137.525 18.2773C138.205 18.8047 138.762 19.4551 139.195 20.2285C139.629 20.9902 139.846 21.9219 139.846 23.0234ZM160.078 13.8125H158.021V8.11719H153.1V26.9434H156.791V29H146.965V26.9434H150.674V8.11719H145.752V13.8125H143.695V6.06055H160.078V13.8125ZM180.346 17.5566C180.346 19.0918 180.188 20.5742 179.871 22.0039C179.555 23.4336 179.051 24.6934 178.359 25.7832C177.668 26.873 176.76 27.752 175.635 28.4199C174.521 29.0762 173.162 29.4043 171.557 29.4043C169.951 29.4043 168.586 29.0762 167.461 28.4199C166.348 27.752 165.439 26.873 164.736 25.7832C164.045 24.6934 163.547 23.4336 163.242 22.0039C162.926 20.5742 162.768 19.0918 162.768 17.5566C162.768 16.0215 162.926 14.5391 163.242 13.1094C163.547 11.6797 164.051 10.4141 164.754 9.3125C165.469 8.21094 166.383 7.33203 167.496 6.67578C168.621 6.00781 169.975 5.67383 171.557 5.67383C173.139 5.67383 174.486 6.00781 175.6 6.67578C176.725 7.33203 177.633 8.21094 178.324 9.3125C179.016 10.4141 179.525 11.6797 179.854 13.1094C180.182 14.5391 180.346 16.0215 180.346 17.5566ZM177.92 17.5566C177.92 16.0449 177.773 14.6855 177.48 13.4785C177.199 12.2598 176.789 11.2227 176.25 10.3672C175.711 9.51172 175.043 8.86133 174.246 8.41602C173.461 7.95898 172.564 7.73047 171.557 7.73047C170.303 7.73047 169.266 8.02344 168.445 8.60938C167.637 9.19531 166.986 9.96289 166.494 10.9121C166.002 11.8613 165.656 12.916 165.457 14.0762C165.27 15.2363 165.176 16.3965 165.176 17.5566C165.176 18.7051 165.27 19.8652 165.457 21.0371C165.656 22.1973 166.002 23.2461 166.494 24.1836C166.986 25.1094 167.637 25.8711 168.445 26.4688C169.266 27.0547 170.303 27.3477 171.557 27.3477C172.799 27.3477 173.83 27.0547 174.65 26.4688C175.471 25.8711 176.127 25.1094 176.619 24.1836C177.111 23.2461 177.451 22.1973 177.639 21.0371C177.826 19.8652 177.92 18.7051 177.92 17.5566ZM199.348 12.6172C199.348 14.832 198.656 16.4785 197.273 17.5566C195.891 18.6348 193.951 19.1738 191.455 19.1738H186.27V29H183.861V6.06055H191.42C193.939 6.06055 195.891 6.61133 197.273 7.71289C198.656 8.80273 199.348 10.4375 199.348 12.6172ZM196.939 12.6172C196.939 11.0352 196.441 9.89258 195.445 9.18945C194.449 8.47461 193.119 8.11719 191.455 8.11719H186.27V17.1172H191.455C193.119 17.1172 194.449 16.7656 195.445 16.0625C196.441 15.3477 196.939 14.1992 196.939 12.6172ZM237.826 29H223.166V6.06055H225.574V26.9434H237.826V29ZM258.955 17.5566C258.955 19.0918 258.797 20.5742 258.48 22.0039C258.164 23.4336 257.66 24.6934 256.969 25.7832C256.277 26.873 255.369 27.752 254.244 28.4199C253.131 29.0762 251.771 29.4043 250.166 29.4043C248.561 29.4043 247.195 29.0762 246.07 28.4199C244.957 27.752 244.049 26.873 243.346 25.7832C242.654 24.6934 242.156 23.4336 241.852 22.0039C241.535 20.5742 241.377 19.0918 241.377 17.5566C241.377 16.0215 241.535 14.5391 241.852 13.1094C242.156 11.6797 242.66 10.4141 243.363 9.3125C244.078 8.21094 244.992 7.33203 246.105 6.67578C247.23 6.00781 248.584 5.67383 250.166 5.67383C251.748 5.67383 253.096 6.00781 254.209 6.67578C255.334 7.33203 256.242 8.21094 256.934 9.3125C257.625 10.4141 258.135 11.6797 258.463 13.1094C258.791 14.5391 258.955 16.0215 258.955 17.5566ZM256.529 17.5566C256.529 16.0449 256.383 14.6855 256.09 13.4785C255.809 12.2598 255.398 11.2227 254.859 10.3672C254.32 9.51172 253.652 8.86133 252.855 8.41602C252.07 7.95898 251.174 7.73047 250.166 7.73047C248.912 7.73047 247.875 8.02344 247.055 8.60938C246.246 9.19531 245.596 9.96289 245.104 10.9121C244.611 11.8613 244.266 12.916 244.066 14.0762C243.879 15.2363 243.785 16.3965 243.785 17.5566C243.785 18.7051 243.879 19.8652 244.066 21.0371C244.266 22.1973 244.611 23.2461 245.104 24.1836C245.596 25.1094 246.246 25.8711 247.055 26.4688C247.875 27.0547 248.912 27.3477 250.166 27.3477C251.408 27.3477 252.439 27.0547 253.26 26.4688C254.08 25.8711 254.736 25.1094 255.229 24.1836C255.721 23.2461 256.061 22.1973 256.248 21.0371C256.436 19.8652 256.529 18.7051 256.529 17.5566ZM278.607 17.5566C278.607 19.0918 278.449 20.5742 278.133 22.0039C277.816 23.4336 277.312 24.6934 276.621 25.7832C275.93 26.873 275.021 27.752 273.896 28.4199C272.783 29.0762 271.424 29.4043 269.818 29.4043C268.213 29.4043 266.848 29.0762 265.723 28.4199C264.609 27.752 263.701 26.873 262.998 25.7832C262.307 24.6934 261.809 23.4336 261.504 22.0039C261.188 20.5742 261.029 19.0918 261.029 17.5566C261.029 16.0215 261.188 14.5391 261.504 13.1094C261.809 11.6797 262.312 10.4141 263.016 9.3125C263.73 8.21094 264.645 7.33203 265.758 6.67578C266.883 6.00781 268.236 5.67383 269.818 5.67383C271.4 5.67383 272.748 6.00781 273.861 6.67578C274.986 7.33203 275.895 8.21094 276.586 9.3125C277.277 10.4141 277.787 11.6797 278.115 13.1094C278.443 14.5391 278.607 16.0215 278.607 17.5566ZM276.182 17.5566C276.182 16.0449 276.035 14.6855 275.742 13.4785C275.461 12.2598 275.051 11.2227 274.512 10.3672C273.973 9.51172 273.305 8.86133 272.508 8.41602C271.723 7.95898 270.826 7.73047 269.818 7.73047C268.564 7.73047 267.527 8.02344 266.707 8.60938C265.898 9.19531 265.248 9.96289 264.756 10.9121C264.264 11.8613 263.918 12.916 263.719 14.0762C263.531 15.2363 263.438 16.3965 263.438 17.5566C263.438 18.7051 263.531 19.8652 263.719 21.0371C263.918 22.1973 264.264 23.2461 264.756 24.1836C265.248 25.1094 265.898 25.8711 266.707 26.4688C267.527 27.0547 268.564 27.3477 269.818 27.3477C271.061 27.3477 272.092 27.0547 272.912 26.4688C273.732 25.8711 274.389 25.1094 274.881 24.1836C275.373 23.2461 275.713 22.1973 275.9 21.0371C276.088 19.8652 276.182 18.7051 276.182 17.5566ZM297.539 29H294.586L286.957 17.7676L284.531 20.4746V29H282.123V6.06055H284.531V17.2227L294.357 6.06055H297.539L288.539 16.0801L297.539 29ZM314.01 29H304.184V26.9434H307.893V8.11719H304.184V6.06055H314.01V8.11719H310.318V26.9434H314.01V29ZM336.088 29H333.1L323.836 9.59375V29H321.428V6.06055H324.82L333.662 24.5703V6.06055H336.088V29ZM357.498 17.5918C357.498 19.1504 357.334 20.6387 357.006 22.0566C356.689 23.4746 356.174 24.7285 355.459 25.8184C354.756 26.9082 353.842 27.7812 352.717 28.4375C351.604 29.082 350.256 29.4043 348.674 29.4043C347.068 29.4043 345.709 29.0762 344.596 28.4199C343.482 27.752 342.568 26.873 341.854 25.7832C341.15 24.6934 340.641 23.4336 340.324 22.0039C340.02 20.5742 339.867 19.0918 339.867 17.5566C339.867 16.0215 340.02 14.5391 340.324 13.1094C340.641 11.6797 341.15 10.4141 341.854 9.3125C342.568 8.21094 343.482 7.33203 344.596 6.67578C345.709 6.00781 347.068 5.67383 348.674 5.67383C350.092 5.67383 351.305 5.92578 352.312 6.42969C353.32 6.93359 354.064 7.70117 354.545 8.73242V6.06055H356.602V13.584H354.545C354.545 12.752 354.387 11.9785 354.07 11.2637C353.766 10.5371 353.35 9.91602 352.822 9.40039C352.295 8.88477 351.668 8.48047 350.941 8.1875C350.227 7.88281 349.471 7.73047 348.674 7.73047C347.432 7.73047 346.4 8.02344 345.58 8.60938C344.771 9.19531 344.121 9.96289 343.629 10.9121C343.137 11.8613 342.785 12.916 342.574 14.0762C342.375 15.2363 342.275 16.3965 342.275 17.5566C342.275 18.7051 342.375 19.8652 342.574 21.0371C342.785 22.1973 343.137 23.2461 343.629 24.1836C344.121 25.1094 344.771 25.8711 345.58 26.4688C346.4 27.0547 347.432 27.3477 348.674 27.3477C350.525 27.3477 351.984 26.6328 353.051 25.2031C354.117 23.7734 354.75 21.7637 354.949 19.1738H349.869V17.1172H357.498V17.5918Z" fill="white"/>
</g>
<defs>
<filter id="filter0_d_676_1810" x="-0.0078125" y="8.67383" width="358.508" height="31.7305" filterUnits="userSpaceOnUse" color-interpolation-filters="sRGB">
<feFlood flood-opacity="0" result="BackgroundImageFix"/>
<feColorMatrix in="SourceAlpha" type="matrix" values="0 0 0 0 0 0 0 0 0 0 0 0 0 0 0 0 0 0 127 0" result="hardAlpha"/>
<feOffset dy="4"/>
<feGaussianBlur stdDeviation="2"/>
<feComposite in2="hardAlpha" operator="out"/>
<feColorMatrix type="matrix" values="0 0 0 0 0 0 0 0 0 0 0 0 0 0 0 0 0 0 0.25 0"/>
<feBlend mode="normal" in2="BackgroundImageFix" result="effect1_dropShadow_676_1810"/>
<feBlend mode="normal" in="SourceGraphic" in2="effect1_dropShadow_676_1810" result="shape"/>
</filter>
<filter id="filter1_d_676_1810" x="0.992188" y="7.67383" width="358.508" height="31.7305" filterUnits="userSpaceOnUse" color-interpolation-filters="sRGB">
<feFlood flood-opacity="0" result="BackgroundImageFix"/>
<feColorMatrix in="SourceAlpha" type="matrix" values="0 0 0 0 0 0 0 0 0 0 0 0 0 0 0 0 0 0 127 0" result="hardAlpha"/>
<feOffset dy="4"/>
<feGaussianBlur stdDeviation="2"/>
<feComposite in2="hardAlpha" operator="out"/>
<feColorMatrix type="matrix" values="0 0 0 0 0 0 0 0 0 0 0 0 0 0 0 0 0 0 0.25 0"/>
<feBlend mode="normal" in2="BackgroundImageFix" result="effect1_dropShadow_676_1810"/>
<feBlend mode="normal" in="SourceGraphic" in2="effect1_dropShadow_676_1810" result="shape"/>
</filter>
<filter id="filter2_d_676_1810" x="1.99219" y="6.67383" width="358.508" height="31.7305" filterUnits="userSpaceOnUse" color-interpolation-filters="sRGB">
<feFlood flood-opacity="0" result="BackgroundImageFix"/>
<feColorMatrix in="SourceAlpha" type="matrix" values="0 0 0 0 0 0 0 0 0 0 0 0 0 0 0 0 0 0 127 0" result="hardAlpha"/>
<feOffset dy="4"/>
<feGaussianBlur stdDeviation="2"/>
<feComposite in2="hardAlpha" operator="out"/>
<feColorMatrix type="matrix" values="0 0 0 0 0 0 0 0 0 0 0 0 0 0 0 0 0 0 0.25 0"/>
<feBlend mode="normal" in2="BackgroundImageFix" result="effect1_dropShadow_676_1810"/>
<feBlend mode="normal" in="SourceGraphic" in2="effect1_dropShadow_676_1810" result="shape"/>
</filter>
<filter id="filter3_d_676_1810" x="2.99219" y="5.67383" width="358.508" height="31.7305" filterUnits="userSpaceOnUse" color-interpolation-filters="sRGB">
<feFlood flood-opacity="0" result="BackgroundImageFix"/>
<feColorMatrix in="SourceAlpha" type="matrix" values="0 0 0 0 0 0 0 0 0 0 0 0 0 0 0 0 0 0 127 0" result="hardAlpha"/>
<feOffset dy="4"/>
<feGaussianBlur stdDeviation="2"/>
<feComposite in2="hardAlpha" operator="out"/>
<feColorMatrix type="matrix" values="0 0 0 0 0 0 0 0 0 0 0 0 0 0 0 0 0 0 0.25 0"/>
<feBlend mode="normal" in2="BackgroundImageFix" result="effect1_dropShadow_676_1810"/>
<feBlend mode="normal" in="SourceGraphic" in2="effect1_dropShadow_676_1810" result="shape"/>
</filter>
</defs>
</svg>
