<svg width="223" height="77" viewBox="0 0 223 77" fill="none" xmlns="http://www.w3.org/2000/svg">
<path d="M19.5508 21.5566C19.5508 23.0918 19.3867 24.5566 19.0586 25.9512C18.7422 27.334 18.2266 28.5527 17.5117 29.6074C16.8086 30.6504 15.8945 31.4766 14.7695 32.0859C13.6562 32.6953 12.3086 33 10.7266 33H3.27344V10.0605H10.7266C12.2852 10.0605 13.6211 10.377 14.7344 11.0098C15.8594 11.6309 16.7734 12.4688 17.4766 13.5234C18.1914 14.5781 18.7129 15.7969 19.041 17.1797C19.3809 18.5625 19.5508 20.0215 19.5508 21.5566ZM17.1426 21.5566C17.1426 18.5566 16.5742 16.2363 15.4375 14.5957C14.3125 12.9434 12.7422 12.1172 10.7266 12.1172H5.68164V30.9434H10.7266C12.7422 30.9434 14.3125 30.1289 15.4375 28.5C16.5742 26.8711 17.1426 24.5566 17.1426 21.5566ZM39.0625 21.5566C39.0625 23.0918 38.9043 24.5742 38.5879 26.0039C38.2715 27.4336 37.7676 28.6934 37.0762 29.7832C36.3848 30.873 35.4766 31.752 34.3516 32.4199C33.2383 33.0762 31.8789 33.4043 30.2734 33.4043C28.668 33.4043 27.3027 33.0762 26.1777 32.4199C25.0645 31.752 24.1562 30.873 23.4531 29.7832C22.7617 28.6934 22.2637 27.4336 21.959 26.0039C21.6426 24.5742 21.4844 23.0918 21.4844 21.5566C21.4844 20.0215 21.6426 18.5391 21.959 17.1094C22.2637 15.6797 22.7676 14.4141 23.4707 13.3125C24.1855 12.2109 25.0996 11.332 26.2129 10.6758C27.3379 10.0078 28.6914 9.67383 30.2734 9.67383C31.8555 9.67383 33.2031 10.0078 34.3164 10.6758C35.4414 11.332 36.3496 12.2109 37.041 13.3125C37.7324 14.4141 38.2422 15.6797 38.5703 17.1094C38.8984 18.5391 39.0625 20.0215 39.0625 21.5566ZM36.6367 21.5566C36.6367 20.0449 36.4902 18.6855 36.1973 17.4785C35.916 16.2598 35.5059 15.2227 34.9668 14.3672C34.4277 13.5117 33.7598 12.8613 32.9629 12.416C32.1777 11.959 31.2812 11.7305 30.2734 11.7305C29.0195 11.7305 27.9824 12.0234 27.1621 12.6094C26.3535 13.1953 25.7031 13.9629 25.2109 14.9121C24.7188 15.8613 24.373 16.916 24.1738 18.0762C23.9863 19.2363 23.8926 20.3965 23.8926 21.5566C23.8926 22.7051 23.9863 23.8652 24.1738 25.0371C24.373 26.1973 24.7188 27.2461 25.2109 28.1836C25.7031 29.1094 26.3535 29.8711 27.1621 30.4688C27.9824 31.0547 29.0195 31.3477 30.2734 31.3477C31.5156 31.3477 32.5469 31.0547 33.3672 30.4688C34.1875 29.8711 34.8438 29.1094 35.3359 28.1836C35.8281 27.2461 36.168 26.1973 36.3555 25.0371C36.543 23.8652 36.6367 22.7051 36.6367 21.5566ZM57.2383 33H54.25L44.9863 13.5938V33H42.5781V10.0605H45.9707L54.8125 28.5703V10.0605H57.2383V33ZM64.6387 10.0605H70.2637V13.8926C70.2637 14.7012 70.1406 15.4688 69.8945 16.1953C69.6602 16.9102 69.3086 17.5371 68.8398 18.0762C68.3711 18.6152 67.7852 19.0488 67.082 19.377C66.3906 19.6934 65.5762 19.8516 64.6387 19.8516V17.8125C67.0176 17.8125 68.207 16.5059 68.207 13.8926V13.3477H64.6387V10.0605ZM97.4043 17.8125H95.3477V12.1172H90.4258V30.9434H94.1172V33H84.291V30.9434H88V12.1172H83.0781V17.8125H81.0215V10.0605H97.4043V17.8125ZM136.129 27.0234C136.129 27.9844 135.93 28.8574 135.531 29.6426C135.133 30.416 134.6 31.084 133.932 31.6465C133.264 32.209 132.496 32.6426 131.629 32.9473C130.762 33.252 129.859 33.4043 128.922 33.4043C127.633 33.4043 126.449 33.1641 125.371 32.6836C124.293 32.2031 123.438 31.4941 122.805 30.5566V33H120.766V26.0215H122.805C122.805 26.8066 122.986 27.5273 123.35 28.1836C123.713 28.8281 124.176 29.3848 124.738 29.8535C125.301 30.3223 125.945 30.6914 126.672 30.9609C127.41 31.2188 128.16 31.3477 128.922 31.3477C129.602 31.3477 130.229 31.2539 130.803 31.0664C131.377 30.8672 131.881 30.5918 132.314 30.2402C132.748 29.877 133.088 29.4375 133.334 28.9219C133.592 28.4062 133.721 27.8203 133.721 27.1641C133.721 26.4258 133.557 25.793 133.229 25.2656C132.912 24.7383 132.479 24.2871 131.928 23.9121C131.389 23.5371 130.779 23.2207 130.1 22.9629C129.42 22.6934 128.729 22.4297 128.025 22.1719C127.193 21.8789 126.361 21.5742 125.529 21.2578C124.697 20.9297 123.953 20.5195 123.297 20.0273C122.641 19.5352 122.107 18.9375 121.697 18.2344C121.287 17.5195 121.082 16.6348 121.082 15.5801C121.082 14.6426 121.281 13.8105 121.68 13.084C122.078 12.3457 122.6 11.7246 123.244 11.2207C123.889 10.7168 124.639 10.3359 125.494 10.0781C126.35 9.80859 127.229 9.67383 128.131 9.67383C129.244 9.67383 130.27 9.90234 131.207 10.3594C132.156 10.8164 132.895 11.5137 133.422 12.4512V10.0605H135.549V16.6172H133.422C133.422 15.9258 133.275 15.2812 132.982 14.6836C132.701 14.0742 132.314 13.5586 131.822 13.1367C131.33 12.7031 130.768 12.3633 130.135 12.1172C129.502 11.8594 128.834 11.7305 128.131 11.7305C127.51 11.7305 126.918 11.8008 126.355 11.9414C125.793 12.082 125.301 12.3105 124.879 12.627C124.457 12.9316 124.117 13.3301 123.859 13.8223C123.613 14.3145 123.49 14.9004 123.49 15.5801C123.49 16.1777 123.637 16.6875 123.93 17.1094C124.234 17.5312 124.639 17.9062 125.143 18.2344C125.646 18.5508 126.227 18.8438 126.883 19.1133C127.551 19.3711 128.23 19.6348 128.922 19.9043C129.789 20.209 130.65 20.5488 131.506 20.9238C132.361 21.2988 133.129 21.75 133.809 22.2773C134.488 22.8047 135.045 23.4551 135.479 24.2285C135.912 24.9902 136.129 25.9219 136.129 27.0234ZM156.361 17.8125H154.305V12.1172H149.383V30.9434H153.074V33H143.248V30.9434H146.957V12.1172H142.035V17.8125H139.979V10.0605H156.361V17.8125ZM176.629 21.5566C176.629 23.0918 176.471 24.5742 176.154 26.0039C175.838 27.4336 175.334 28.6934 174.643 29.7832C173.951 30.873 173.043 31.752 171.918 32.4199C170.805 33.0762 169.445 33.4043 167.84 33.4043C166.234 33.4043 164.869 33.0762 163.744 32.4199C162.631 31.752 161.723 30.873 161.02 29.7832C160.328 28.6934 159.83 27.4336 159.525 26.0039C159.209 24.5742 159.051 23.0918 159.051 21.5566C159.051 20.0215 159.209 18.5391 159.525 17.1094C159.83 15.6797 160.334 14.4141 161.037 13.3125C161.752 12.2109 162.666 11.332 163.779 10.6758C164.904 10.0078 166.258 9.67383 167.84 9.67383C169.422 9.67383 170.77 10.0078 171.883 10.6758C173.008 11.332 173.916 12.2109 174.607 13.3125C175.299 14.4141 175.809 15.6797 176.137 17.1094C176.465 18.5391 176.629 20.0215 176.629 21.5566ZM174.203 21.5566C174.203 20.0449 174.057 18.6855 173.764 17.4785C173.482 16.2598 173.072 15.2227 172.533 14.3672C171.994 13.5117 171.326 12.8613 170.529 12.416C169.744 11.959 168.848 11.7305 167.84 11.7305C166.586 11.7305 165.549 12.0234 164.729 12.6094C163.92 13.1953 163.27 13.9629 162.777 14.9121C162.285 15.8613 161.939 16.916 161.74 18.0762C161.553 19.2363 161.459 20.3965 161.459 21.5566C161.459 22.7051 161.553 23.8652 161.74 25.0371C161.939 26.1973 162.285 27.2461 162.777 28.1836C163.27 29.1094 163.92 29.8711 164.729 30.4688C165.549 31.0547 166.586 31.3477 167.84 31.3477C169.082 31.3477 170.113 31.0547 170.934 30.4688C171.754 29.8711 172.41 29.1094 172.902 28.1836C173.395 27.2461 173.734 26.1973 173.922 25.0371C174.109 23.8652 174.203 22.7051 174.203 21.5566ZM195.631 16.6172C195.631 18.832 194.939 20.4785 193.557 21.5566C192.174 22.6348 190.234 23.1738 187.738 23.1738H182.553V33H180.145V10.0605H187.703C190.223 10.0605 192.174 10.6113 193.557 11.7129C194.939 12.8027 195.631 14.4375 195.631 16.6172ZM193.223 16.6172C193.223 15.0352 192.725 13.8926 191.729 13.1895C190.732 12.4746 189.402 12.1172 187.738 12.1172H182.553V21.1172H187.738C189.402 21.1172 190.732 20.7656 191.729 20.0625C192.725 19.3477 193.223 18.1992 193.223 16.6172ZM57.2383 69H42.5781V46.0605H44.9863V66.9434H57.2383V69ZM78.3672 57.5566C78.3672 59.0918 78.209 60.5742 77.8926 62.0039C77.5762 63.4336 77.0723 64.6934 76.3809 65.7832C75.6895 66.873 74.7812 67.752 73.6562 68.4199C72.543 69.0762 71.1836 69.4043 69.5781 69.4043C67.9727 69.4043 66.6074 69.0762 65.4824 68.4199C64.3691 67.752 63.4609 66.873 62.7578 65.7832C62.0664 64.6934 61.5684 63.4336 61.2637 62.0039C60.9473 60.5742 60.7891 59.0918 60.7891 57.5566C60.7891 56.0215 60.9473 54.5391 61.2637 53.1094C61.5684 51.6797 62.0723 50.4141 62.7754 49.3125C63.4902 48.2109 64.4043 47.332 65.5176 46.6758C66.6426 46.0078 67.9961 45.6738 69.5781 45.6738C71.1602 45.6738 72.5078 46.0078 73.6211 46.6758C74.7461 47.332 75.6543 48.2109 76.3457 49.3125C77.0371 50.4141 77.5469 51.6797 77.875 53.1094C78.2031 54.5391 78.3672 56.0215 78.3672 57.5566ZM75.9414 57.5566C75.9414 56.0449 75.7949 54.6855 75.502 53.4785C75.2207 52.2598 74.8105 51.2227 74.2715 50.3672C73.7324 49.5117 73.0645 48.8613 72.2676 48.416C71.4824 47.959 70.5859 47.7305 69.5781 47.7305C68.3242 47.7305 67.2871 48.0234 66.4668 48.6094C65.6582 49.1953 65.0078 49.9629 64.5156 50.9121C64.0234 51.8613 63.6777 52.916 63.4785 54.0762C63.291 55.2363 63.1973 56.3965 63.1973 57.5566C63.1973 58.7051 63.291 59.8652 63.4785 61.0371C63.6777 62.1973 64.0234 63.2461 64.5156 64.1836C65.0078 65.1094 65.6582 65.8711 66.4668 66.4688C67.2871 67.0547 68.3242 67.3477 69.5781 67.3477C70.8203 67.3477 71.8516 67.0547 72.6719 66.4688C73.4922 65.8711 74.1484 65.1094 74.6406 64.1836C75.1328 63.2461 75.4727 62.1973 75.6602 61.0371C75.8477 59.8652 75.9414 58.7051 75.9414 57.5566ZM98.0195 57.5566C98.0195 59.0918 97.8613 60.5742 97.5449 62.0039C97.2285 63.4336 96.7246 64.6934 96.0332 65.7832C95.3418 66.873 94.4336 67.752 93.3086 68.4199C92.1953 69.0762 90.8359 69.4043 89.2305 69.4043C87.625 69.4043 86.2598 69.0762 85.1348 68.4199C84.0215 67.752 83.1133 66.873 82.4102 65.7832C81.7188 64.6934 81.2207 63.4336 80.916 62.0039C80.5996 60.5742 80.4414 59.0918 80.4414 57.5566C80.4414 56.0215 80.5996 54.5391 80.916 53.1094C81.2207 51.6797 81.7246 50.4141 82.4277 49.3125C83.1426 48.2109 84.0566 47.332 85.1699 46.6758C86.2949 46.0078 87.6484 45.6738 89.2305 45.6738C90.8125 45.6738 92.1602 46.0078 93.2734 46.6758C94.3984 47.332 95.3066 48.2109 95.998 49.3125C96.6895 50.4141 97.1992 51.6797 97.5273 53.1094C97.8555 54.5391 98.0195 56.0215 98.0195 57.5566ZM95.5938 57.5566C95.5938 56.0449 95.4473 54.6855 95.1543 53.4785C94.873 52.2598 94.4629 51.2227 93.9238 50.3672C93.3848 49.5117 92.7168 48.8613 91.9199 48.416C91.1348 47.959 90.2383 47.7305 89.2305 47.7305C87.9766 47.7305 86.9395 48.0234 86.1191 48.6094C85.3105 49.1953 84.6602 49.9629 84.168 50.9121C83.6758 51.8613 83.3301 52.916 83.1309 54.0762C82.9434 55.2363 82.8496 56.3965 82.8496 57.5566C82.8496 58.7051 82.9434 59.8652 83.1309 61.0371C83.3301 62.1973 83.6758 63.2461 84.168 64.1836C84.6602 65.1094 85.3105 65.8711 86.1191 66.4688C86.9395 67.0547 87.9766 67.3477 89.2305 67.3477C90.4727 67.3477 91.5039 67.0547 92.3242 66.4688C93.1445 65.8711 93.8008 65.1094 94.293 64.1836C94.7852 63.2461 95.125 62.1973 95.3125 61.0371C95.5 59.8652 95.5938 58.7051 95.5938 57.5566ZM116.951 69H113.998L106.369 57.7676L103.943 60.4746V69H101.535V46.0605H103.943V57.2227L113.77 46.0605H116.951L107.951 56.0801L116.951 69ZM133.422 69H123.596V66.9434H127.305V48.1172H123.596V46.0605H133.422V48.1172H129.73V66.9434H133.422V69ZM155.5 69H152.512L143.248 49.5938V69H140.84V46.0605H144.232L153.074 64.5703V46.0605H155.5V69ZM176.91 57.5918C176.91 59.1504 176.746 60.6387 176.418 62.0566C176.102 63.4746 175.586 64.7285 174.871 65.8184C174.168 66.9082 173.254 67.7812 172.129 68.4375C171.016 69.082 169.668 69.4043 168.086 69.4043C166.48 69.4043 165.121 69.0762 164.008 68.4199C162.895 67.752 161.98 66.873 161.266 65.7832C160.562 64.6934 160.053 63.4336 159.736 62.0039C159.432 60.5742 159.279 59.0918 159.279 57.5566C159.279 56.0215 159.432 54.5391 159.736 53.1094C160.053 51.6797 160.562 50.4141 161.266 49.3125C161.98 48.2109 162.895 47.332 164.008 46.6758C165.121 46.0078 166.48 45.6738 168.086 45.6738C169.504 45.6738 170.717 45.9258 171.725 46.4297C172.732 46.9336 173.477 47.7012 173.957 48.7324V46.0605H176.014V53.584H173.957C173.957 52.752 173.799 51.9785 173.482 51.2637C173.178 50.5371 172.762 49.916 172.234 49.4004C171.707 48.8848 171.08 48.4805 170.354 48.1875C169.639 47.8828 168.883 47.7305 168.086 47.7305C166.844 47.7305 165.812 48.0234 164.992 48.6094C164.184 49.1953 163.533 49.9629 163.041 50.9121C162.549 51.8613 162.197 52.916 161.986 54.0762C161.787 55.2363 161.688 56.3965 161.688 57.5566C161.688 58.7051 161.787 59.8652 161.986 61.0371C162.197 62.1973 162.549 63.2461 163.041 64.1836C163.533 65.1094 164.184 65.8711 164.992 66.4688C165.812 67.0547 166.844 67.3477 168.086 67.3477C169.938 67.3477 171.396 66.6328 172.463 65.2031C173.529 63.7734 174.162 61.7637 174.361 59.1738H169.281V57.1172H176.91V57.5918Z" fill="#D500FF"/>
<g filter="url(#filter0_d_676_1774)">
<path d="M20.5508 20.5566C20.5508 22.0918 20.3867 23.5566 20.0586 24.9512C19.7422 26.334 19.2266 27.5527 18.5117 28.6074C17.8086 29.6504 16.8945 30.4766 15.7695 31.0859C14.6562 31.6953 13.3086 32 11.7266 32H4.27344V9.06055H11.7266C13.2852 9.06055 14.6211 9.37695 15.7344 10.0098C16.8594 10.6309 17.7734 11.4688 18.4766 12.5234C19.1914 13.5781 19.7129 14.7969 20.041 16.1797C20.3809 17.5625 20.5508 19.0215 20.5508 20.5566ZM18.1426 20.5566C18.1426 17.5566 17.5742 15.2363 16.4375 13.5957C15.3125 11.9434 13.7422 11.1172 11.7266 11.1172H6.68164V29.9434H11.7266C13.7422 29.9434 15.3125 29.1289 16.4375 27.5C17.5742 25.8711 18.1426 23.5566 18.1426 20.5566ZM40.0625 20.5566C40.0625 22.0918 39.9043 23.5742 39.5879 25.0039C39.2715 26.4336 38.7676 27.6934 38.0762 28.7832C37.3848 29.873 36.4766 30.752 35.3516 31.4199C34.2383 32.0762 32.8789 32.4043 31.2734 32.4043C29.668 32.4043 28.3027 32.0762 27.1777 31.4199C26.0645 30.752 25.1562 29.873 24.4531 28.7832C23.7617 27.6934 23.2637 26.4336 22.959 25.0039C22.6426 23.5742 22.4844 22.0918 22.4844 20.5566C22.4844 19.0215 22.6426 17.5391 22.959 16.1094C23.2637 14.6797 23.7676 13.4141 24.4707 12.3125C25.1855 11.2109 26.0996 10.332 27.2129 9.67578C28.3379 9.00781 29.6914 8.67383 31.2734 8.67383C32.8555 8.67383 34.2031 9.00781 35.3164 9.67578C36.4414 10.332 37.3496 11.2109 38.041 12.3125C38.7324 13.4141 39.2422 14.6797 39.5703 16.1094C39.8984 17.5391 40.0625 19.0215 40.0625 20.5566ZM37.6367 20.5566C37.6367 19.0449 37.4902 17.6855 37.1973 16.4785C36.916 15.2598 36.5059 14.2227 35.9668 13.3672C35.4277 12.5117 34.7598 11.8613 33.9629 11.416C33.1777 10.959 32.2812 10.7305 31.2734 10.7305C30.0195 10.7305 28.9824 11.0234 28.1621 11.6094C27.3535 12.1953 26.7031 12.9629 26.2109 13.9121C25.7188 14.8613 25.373 15.916 25.1738 17.0762C24.9863 18.2363 24.8926 19.3965 24.8926 20.5566C24.8926 21.7051 24.9863 22.8652 25.1738 24.0371C25.373 25.1973 25.7188 26.2461 26.2109 27.1836C26.7031 28.1094 27.3535 28.8711 28.1621 29.4688C28.9824 30.0547 30.0195 30.3477 31.2734 30.3477C32.5156 30.3477 33.5469 30.0547 34.3672 29.4688C35.1875 28.8711 35.8438 28.1094 36.3359 27.1836C36.8281 26.2461 37.168 25.1973 37.3555 24.0371C37.543 22.8652 37.6367 21.7051 37.6367 20.5566ZM58.2383 32H55.25L45.9863 12.5938V32H43.5781V9.06055H46.9707L55.8125 27.5703V9.06055H58.2383V32ZM65.6387 9.06055H71.2637V12.8926C71.2637 13.7012 71.1406 14.4688 70.8945 15.1953C70.6602 15.9102 70.3086 16.5371 69.8398 17.0762C69.3711 17.6152 68.7852 18.0488 68.082 18.377C67.3906 18.6934 66.5762 18.8516 65.6387 18.8516V16.8125C68.0176 16.8125 69.207 15.5059 69.207 12.8926V12.3477H65.6387V9.06055ZM98.4043 16.8125H96.3477V11.1172H91.4258V29.9434H95.1172V32H85.291V29.9434H89V11.1172H84.0781V16.8125H82.0215V9.06055H98.4043V16.8125ZM137.129 26.0234C137.129 26.9844 136.93 27.8574 136.531 28.6426C136.133 29.416 135.6 30.084 134.932 30.6465C134.264 31.209 133.496 31.6426 132.629 31.9473C131.762 32.252 130.859 32.4043 129.922 32.4043C128.633 32.4043 127.449 32.1641 126.371 31.6836C125.293 31.2031 124.438 30.4941 123.805 29.5566V32H121.766V25.0215H123.805C123.805 25.8066 123.986 26.5273 124.35 27.1836C124.713 27.8281 125.176 28.3848 125.738 28.8535C126.301 29.3223 126.945 29.6914 127.672 29.9609C128.41 30.2188 129.16 30.3477 129.922 30.3477C130.602 30.3477 131.229 30.2539 131.803 30.0664C132.377 29.8672 132.881 29.5918 133.314 29.2402C133.748 28.877 134.088 28.4375 134.334 27.9219C134.592 27.4062 134.721 26.8203 134.721 26.1641C134.721 25.4258 134.557 24.793 134.229 24.2656C133.912 23.7383 133.479 23.2871 132.928 22.9121C132.389 22.5371 131.779 22.2207 131.1 21.9629C130.42 21.6934 129.729 21.4297 129.025 21.1719C128.193 20.8789 127.361 20.5742 126.529 20.2578C125.697 19.9297 124.953 19.5195 124.297 19.0273C123.641 18.5352 123.107 17.9375 122.697 17.2344C122.287 16.5195 122.082 15.6348 122.082 14.5801C122.082 13.6426 122.281 12.8105 122.68 12.084C123.078 11.3457 123.6 10.7246 124.244 10.2207C124.889 9.7168 125.639 9.33594 126.494 9.07812C127.35 8.80859 128.229 8.67383 129.131 8.67383C130.244 8.67383 131.27 8.90234 132.207 9.35938C133.156 9.81641 133.895 10.5137 134.422 11.4512V9.06055H136.549V15.6172H134.422C134.422 14.9258 134.275 14.2812 133.982 13.6836C133.701 13.0742 133.314 12.5586 132.822 12.1367C132.33 11.7031 131.768 11.3633 131.135 11.1172C130.502 10.8594 129.834 10.7305 129.131 10.7305C128.51 10.7305 127.918 10.8008 127.355 10.9414C126.793 11.082 126.301 11.3105 125.879 11.627C125.457 11.9316 125.117 12.3301 124.859 12.8223C124.613 13.3145 124.49 13.9004 124.49 14.5801C124.49 15.1777 124.637 15.6875 124.93 16.1094C125.234 16.5312 125.639 16.9062 126.143 17.2344C126.646 17.5508 127.227 17.8438 127.883 18.1133C128.551 18.3711 129.23 18.6348 129.922 18.9043C130.789 19.209 131.65 19.5488 132.506 19.9238C133.361 20.2988 134.129 20.75 134.809 21.2773C135.488 21.8047 136.045 22.4551 136.479 23.2285C136.912 23.9902 137.129 24.9219 137.129 26.0234ZM157.361 16.8125H155.305V11.1172H150.383V29.9434H154.074V32H144.248V29.9434H147.957V11.1172H143.035V16.8125H140.979V9.06055H157.361V16.8125ZM177.629 20.5566C177.629 22.0918 177.471 23.5742 177.154 25.0039C176.838 26.4336 176.334 27.6934 175.643 28.7832C174.951 29.873 174.043 30.752 172.918 31.4199C171.805 32.0762 170.445 32.4043 168.84 32.4043C167.234 32.4043 165.869 32.0762 164.744 31.4199C163.631 30.752 162.723 29.873 162.02 28.7832C161.328 27.6934 160.83 26.4336 160.525 25.0039C160.209 23.5742 160.051 22.0918 160.051 20.5566C160.051 19.0215 160.209 17.5391 160.525 16.1094C160.83 14.6797 161.334 13.4141 162.037 12.3125C162.752 11.2109 163.666 10.332 164.779 9.67578C165.904 9.00781 167.258 8.67383 168.84 8.67383C170.422 8.67383 171.77 9.00781 172.883 9.67578C174.008 10.332 174.916 11.2109 175.607 12.3125C176.299 13.4141 176.809 14.6797 177.137 16.1094C177.465 17.5391 177.629 19.0215 177.629 20.5566ZM175.203 20.5566C175.203 19.0449 175.057 17.6855 174.764 16.4785C174.482 15.2598 174.072 14.2227 173.533 13.3672C172.994 12.5117 172.326 11.8613 171.529 11.416C170.744 10.959 169.848 10.7305 168.84 10.7305C167.586 10.7305 166.549 11.0234 165.729 11.6094C164.92 12.1953 164.27 12.9629 163.777 13.9121C163.285 14.8613 162.939 15.916 162.74 17.0762C162.553 18.2363 162.459 19.3965 162.459 20.5566C162.459 21.7051 162.553 22.8652 162.74 24.0371C162.939 25.1973 163.285 26.2461 163.777 27.1836C164.27 28.1094 164.92 28.8711 165.729 29.4688C166.549 30.0547 167.586 30.3477 168.84 30.3477C170.082 30.3477 171.113 30.0547 171.934 29.4688C172.754 28.8711 173.41 28.1094 173.902 27.1836C174.395 26.2461 174.734 25.1973 174.922 24.0371C175.109 22.8652 175.203 21.7051 175.203 20.5566ZM196.631 15.6172C196.631 17.832 195.939 19.4785 194.557 20.5566C193.174 21.6348 191.234 22.1738 188.738 22.1738H183.553V32H181.145V9.06055H188.703C191.223 9.06055 193.174 9.61133 194.557 10.7129C195.939 11.8027 196.631 13.4375 196.631 15.6172ZM194.223 15.6172C194.223 14.0352 193.725 12.8926 192.729 12.1895C191.732 11.4746 190.402 11.1172 188.738 11.1172H183.553V20.1172H188.738C190.402 20.1172 191.732 19.7656 192.729 19.0625C193.725 18.3477 194.223 17.1992 194.223 15.6172ZM58.2383 68H43.5781V45.0605H45.9863V65.9434H58.2383V68ZM79.3672 56.5566C79.3672 58.0918 79.209 59.5742 78.8926 61.0039C78.5762 62.4336 78.0723 63.6934 77.3809 64.7832C76.6895 65.873 75.7812 66.752 74.6562 67.4199C73.543 68.0762 72.1836 68.4043 70.5781 68.4043C68.9727 68.4043 67.6074 68.0762 66.4824 67.4199C65.3691 66.752 64.4609 65.873 63.7578 64.7832C63.0664 63.6934 62.5684 62.4336 62.2637 61.0039C61.9473 59.5742 61.7891 58.0918 61.7891 56.5566C61.7891 55.0215 61.9473 53.5391 62.2637 52.1094C62.5684 50.6797 63.0723 49.4141 63.7754 48.3125C64.4902 47.2109 65.4043 46.332 66.5176 45.6758C67.6426 45.0078 68.9961 44.6738 70.5781 44.6738C72.1602 44.6738 73.5078 45.0078 74.6211 45.6758C75.7461 46.332 76.6543 47.2109 77.3457 48.3125C78.0371 49.4141 78.5469 50.6797 78.875 52.1094C79.2031 53.5391 79.3672 55.0215 79.3672 56.5566ZM76.9414 56.5566C76.9414 55.0449 76.7949 53.6855 76.502 52.4785C76.2207 51.2598 75.8105 50.2227 75.2715 49.3672C74.7324 48.5117 74.0645 47.8613 73.2676 47.416C72.4824 46.959 71.5859 46.7305 70.5781 46.7305C69.3242 46.7305 68.2871 47.0234 67.4668 47.6094C66.6582 48.1953 66.0078 48.9629 65.5156 49.9121C65.0234 50.8613 64.6777 51.916 64.4785 53.0762C64.291 54.2363 64.1973 55.3965 64.1973 56.5566C64.1973 57.7051 64.291 58.8652 64.4785 60.0371C64.6777 61.1973 65.0234 62.2461 65.5156 63.1836C66.0078 64.1094 66.6582 64.8711 67.4668 65.4688C68.2871 66.0547 69.3242 66.3477 70.5781 66.3477C71.8203 66.3477 72.8516 66.0547 73.6719 65.4688C74.4922 64.8711 75.1484 64.1094 75.6406 63.1836C76.1328 62.2461 76.4727 61.1973 76.6602 60.0371C76.8477 58.8652 76.9414 57.7051 76.9414 56.5566ZM99.0195 56.5566C99.0195 58.0918 98.8613 59.5742 98.5449 61.0039C98.2285 62.4336 97.7246 63.6934 97.0332 64.7832C96.3418 65.873 95.4336 66.752 94.3086 67.4199C93.1953 68.0762 91.8359 68.4043 90.2305 68.4043C88.625 68.4043 87.2598 68.0762 86.1348 67.4199C85.0215 66.752 84.1133 65.873 83.4102 64.7832C82.7188 63.6934 82.2207 62.4336 81.916 61.0039C81.5996 59.5742 81.4414 58.0918 81.4414 56.5566C81.4414 55.0215 81.5996 53.5391 81.916 52.1094C82.2207 50.6797 82.7246 49.4141 83.4277 48.3125C84.1426 47.2109 85.0566 46.332 86.1699 45.6758C87.2949 45.0078 88.6484 44.6738 90.2305 44.6738C91.8125 44.6738 93.1602 45.0078 94.2734 45.6758C95.3984 46.332 96.3066 47.2109 96.998 48.3125C97.6895 49.4141 98.1992 50.6797 98.5273 52.1094C98.8555 53.5391 99.0195 55.0215 99.0195 56.5566ZM96.5938 56.5566C96.5938 55.0449 96.4473 53.6855 96.1543 52.4785C95.873 51.2598 95.4629 50.2227 94.9238 49.3672C94.3848 48.5117 93.7168 47.8613 92.9199 47.416C92.1348 46.959 91.2383 46.7305 90.2305 46.7305C88.9766 46.7305 87.9395 47.0234 87.1191 47.6094C86.3105 48.1953 85.6602 48.9629 85.168 49.9121C84.6758 50.8613 84.3301 51.916 84.1309 53.0762C83.9434 54.2363 83.8496 55.3965 83.8496 56.5566C83.8496 57.7051 83.9434 58.8652 84.1309 60.0371C84.3301 61.1973 84.6758 62.2461 85.168 63.1836C85.6602 64.1094 86.3105 64.8711 87.1191 65.4688C87.9395 66.0547 88.9766 66.3477 90.2305 66.3477C91.4727 66.3477 92.5039 66.0547 93.3242 65.4688C94.1445 64.8711 94.8008 64.1094 95.293 63.1836C95.7852 62.2461 96.125 61.1973 96.3125 60.0371C96.5 58.8652 96.5938 57.7051 96.5938 56.5566ZM117.951 68H114.998L107.369 56.7676L104.943 59.4746V68H102.535V45.0605H104.943V56.2227L114.77 45.0605H117.951L108.951 55.0801L117.951 68ZM134.422 68H124.596V65.9434H128.305V47.1172H124.596V45.0605H134.422V47.1172H130.73V65.9434H134.422V68ZM156.5 68H153.512L144.248 48.5938V68H141.84V45.0605H145.232L154.074 63.5703V45.0605H156.5V68ZM177.91 56.5918C177.91 58.1504 177.746 59.6387 177.418 61.0566C177.102 62.4746 176.586 63.7285 175.871 64.8184C175.168 65.9082 174.254 66.7812 173.129 67.4375C172.016 68.082 170.668 68.4043 169.086 68.4043C167.48 68.4043 166.121 68.0762 165.008 67.4199C163.895 66.752 162.98 65.873 162.266 64.7832C161.562 63.6934 161.053 62.4336 160.736 61.0039C160.432 59.5742 160.279 58.0918 160.279 56.5566C160.279 55.0215 160.432 53.5391 160.736 52.1094C161.053 50.6797 161.562 49.4141 162.266 48.3125C162.98 47.2109 163.895 46.332 165.008 45.6758C166.121 45.0078 167.48 44.6738 169.086 44.6738C170.504 44.6738 171.717 44.9258 172.725 45.4297C173.732 45.9336 174.477 46.7012 174.957 47.7324V45.0605H177.014V52.584H174.957C174.957 51.752 174.799 50.9785 174.482 50.2637C174.178 49.5371 173.762 48.916 173.234 48.4004C172.707 47.8848 172.08 47.4805 171.354 47.1875C170.639 46.8828 169.883 46.7305 169.086 46.7305C167.844 46.7305 166.812 47.0234 165.992 47.6094C165.184 48.1953 164.533 48.9629 164.041 49.9121C163.549 50.8613 163.197 51.916 162.986 53.0762C162.787 54.2363 162.688 55.3965 162.688 56.5566C162.688 57.7051 162.787 58.8652 162.986 60.0371C163.197 61.1973 163.549 62.2461 164.041 63.1836C164.533 64.1094 165.184 64.8711 165.992 65.4688C166.812 66.0547 167.844 66.3477 169.086 66.3477C170.938 66.3477 172.396 65.6328 173.463 64.2031C174.529 62.7734 175.162 60.7637 175.361 58.1738H170.281V56.1172H177.91V56.5918Z" fill="#FF0004"/>
</g>
<g filter="url(#filter1_d_676_1774)">
<path d="M21.5508 19.5566C21.5508 21.0918 21.3867 22.5566 21.0586 23.9512C20.7422 25.334 20.2266 26.5527 19.5117 27.6074C18.8086 28.6504 17.8945 29.4766 16.7695 30.0859C15.6562 30.6953 14.3086 31 12.7266 31H5.27344V8.06055H12.7266C14.2852 8.06055 15.6211 8.37695 16.7344 9.00977C17.8594 9.63086 18.7734 10.4688 19.4766 11.5234C20.1914 12.5781 20.7129 13.7969 21.041 15.1797C21.3809 16.5625 21.5508 18.0215 21.5508 19.5566ZM19.1426 19.5566C19.1426 16.5566 18.5742 14.2363 17.4375 12.5957C16.3125 10.9434 14.7422 10.1172 12.7266 10.1172H7.68164V28.9434H12.7266C14.7422 28.9434 16.3125 28.1289 17.4375 26.5C18.5742 24.8711 19.1426 22.5566 19.1426 19.5566ZM41.0625 19.5566C41.0625 21.0918 40.9043 22.5742 40.5879 24.0039C40.2715 25.4336 39.7676 26.6934 39.0762 27.7832C38.3848 28.873 37.4766 29.752 36.3516 30.4199C35.2383 31.0762 33.8789 31.4043 32.2734 31.4043C30.668 31.4043 29.3027 31.0762 28.1777 30.4199C27.0645 29.752 26.1562 28.873 25.4531 27.7832C24.7617 26.6934 24.2637 25.4336 23.959 24.0039C23.6426 22.5742 23.4844 21.0918 23.4844 19.5566C23.4844 18.0215 23.6426 16.5391 23.959 15.1094C24.2637 13.6797 24.7676 12.4141 25.4707 11.3125C26.1855 10.2109 27.0996 9.33203 28.2129 8.67578C29.3379 8.00781 30.6914 7.67383 32.2734 7.67383C33.8555 7.67383 35.2031 8.00781 36.3164 8.67578C37.4414 9.33203 38.3496 10.2109 39.041 11.3125C39.7324 12.4141 40.2422 13.6797 40.5703 15.1094C40.8984 16.5391 41.0625 18.0215 41.0625 19.5566ZM38.6367 19.5566C38.6367 18.0449 38.4902 16.6855 38.1973 15.4785C37.916 14.2598 37.5059 13.2227 36.9668 12.3672C36.4277 11.5117 35.7598 10.8613 34.9629 10.416C34.1777 9.95898 33.2812 9.73047 32.2734 9.73047C31.0195 9.73047 29.9824 10.0234 29.1621 10.6094C28.3535 11.1953 27.7031 11.9629 27.2109 12.9121C26.7188 13.8613 26.373 14.916 26.1738 16.0762C25.9863 17.2363 25.8926 18.3965 25.8926 19.5566C25.8926 20.7051 25.9863 21.8652 26.1738 23.0371C26.373 24.1973 26.7188 25.2461 27.2109 26.1836C27.7031 27.1094 28.3535 27.8711 29.1621 28.4688C29.9824 29.0547 31.0195 29.3477 32.2734 29.3477C33.5156 29.3477 34.5469 29.0547 35.3672 28.4688C36.1875 27.8711 36.8438 27.1094 37.3359 26.1836C37.8281 25.2461 38.168 24.1973 38.3555 23.0371C38.543 21.8652 38.6367 20.7051 38.6367 19.5566ZM59.2383 31H56.25L46.9863 11.5938V31H44.5781V8.06055H47.9707L56.8125 26.5703V8.06055H59.2383V31ZM66.6387 8.06055H72.2637V11.8926C72.2637 12.7012 72.1406 13.4688 71.8945 14.1953C71.6602 14.9102 71.3086 15.5371 70.8398 16.0762C70.3711 16.6152 69.7852 17.0488 69.082 17.377C68.3906 17.6934 67.5762 17.8516 66.6387 17.8516V15.8125C69.0176 15.8125 70.207 14.5059 70.207 11.8926V11.3477H66.6387V8.06055ZM99.4043 15.8125H97.3477V10.1172H92.4258V28.9434H96.1172V31H86.291V28.9434H90V10.1172H85.0781V15.8125H83.0215V8.06055H99.4043V15.8125ZM138.129 25.0234C138.129 25.9844 137.93 26.8574 137.531 27.6426C137.133 28.416 136.6 29.084 135.932 29.6465C135.264 30.209 134.496 30.6426 133.629 30.9473C132.762 31.252 131.859 31.4043 130.922 31.4043C129.633 31.4043 128.449 31.1641 127.371 30.6836C126.293 30.2031 125.438 29.4941 124.805 28.5566V31H122.766V24.0215H124.805C124.805 24.8066 124.986 25.5273 125.35 26.1836C125.713 26.8281 126.176 27.3848 126.738 27.8535C127.301 28.3223 127.945 28.6914 128.672 28.9609C129.41 29.2188 130.16 29.3477 130.922 29.3477C131.602 29.3477 132.229 29.2539 132.803 29.0664C133.377 28.8672 133.881 28.5918 134.314 28.2402C134.748 27.877 135.088 27.4375 135.334 26.9219C135.592 26.4062 135.721 25.8203 135.721 25.1641C135.721 24.4258 135.557 23.793 135.229 23.2656C134.912 22.7383 134.479 22.2871 133.928 21.9121C133.389 21.5371 132.779 21.2207 132.1 20.9629C131.42 20.6934 130.729 20.4297 130.025 20.1719C129.193 19.8789 128.361 19.5742 127.529 19.2578C126.697 18.9297 125.953 18.5195 125.297 18.0273C124.641 17.5352 124.107 16.9375 123.697 16.2344C123.287 15.5195 123.082 14.6348 123.082 13.5801C123.082 12.6426 123.281 11.8105 123.68 11.084C124.078 10.3457 124.6 9.72461 125.244 9.2207C125.889 8.7168 126.639 8.33594 127.494 8.07812C128.35 7.80859 129.229 7.67383 130.131 7.67383C131.244 7.67383 132.27 7.90234 133.207 8.35938C134.156 8.81641 134.895 9.51367 135.422 10.4512V8.06055H137.549V14.6172H135.422C135.422 13.9258 135.275 13.2812 134.982 12.6836C134.701 12.0742 134.314 11.5586 133.822 11.1367C133.33 10.7031 132.768 10.3633 132.135 10.1172C131.502 9.85937 130.834 9.73047 130.131 9.73047C129.51 9.73047 128.918 9.80078 128.355 9.94141C127.793 10.082 127.301 10.3105 126.879 10.627C126.457 10.9316 126.117 11.3301 125.859 11.8223C125.613 12.3145 125.49 12.9004 125.49 13.5801C125.49 14.1777 125.637 14.6875 125.93 15.1094C126.234 15.5312 126.639 15.9062 127.143 16.2344C127.646 16.5508 128.227 16.8438 128.883 17.1133C129.551 17.3711 130.23 17.6348 130.922 17.9043C131.789 18.209 132.65 18.5488 133.506 18.9238C134.361 19.2988 135.129 19.75 135.809 20.2773C136.488 20.8047 137.045 21.4551 137.479 22.2285C137.912 22.9902 138.129 23.9219 138.129 25.0234ZM158.361 15.8125H156.305V10.1172H151.383V28.9434H155.074V31H145.248V28.9434H148.957V10.1172H144.035V15.8125H141.979V8.06055H158.361V15.8125ZM178.629 19.5566C178.629 21.0918 178.471 22.5742 178.154 24.0039C177.838 25.4336 177.334 26.6934 176.643 27.7832C175.951 28.873 175.043 29.752 173.918 30.4199C172.805 31.0762 171.445 31.4043 169.84 31.4043C168.234 31.4043 166.869 31.0762 165.744 30.4199C164.631 29.752 163.723 28.873 163.02 27.7832C162.328 26.6934 161.83 25.4336 161.525 24.0039C161.209 22.5742 161.051 21.0918 161.051 19.5566C161.051 18.0215 161.209 16.5391 161.525 15.1094C161.83 13.6797 162.334 12.4141 163.037 11.3125C163.752 10.2109 164.666 9.33203 165.779 8.67578C166.904 8.00781 168.258 7.67383 169.84 7.67383C171.422 7.67383 172.77 8.00781 173.883 8.67578C175.008 9.33203 175.916 10.2109 176.607 11.3125C177.299 12.4141 177.809 13.6797 178.137 15.1094C178.465 16.5391 178.629 18.0215 178.629 19.5566ZM176.203 19.5566C176.203 18.0449 176.057 16.6855 175.764 15.4785C175.482 14.2598 175.072 13.2227 174.533 12.3672C173.994 11.5117 173.326 10.8613 172.529 10.416C171.744 9.95898 170.848 9.73047 169.84 9.73047C168.586 9.73047 167.549 10.0234 166.729 10.6094C165.92 11.1953 165.27 11.9629 164.777 12.9121C164.285 13.8613 163.939 14.916 163.74 16.0762C163.553 17.2363 163.459 18.3965 163.459 19.5566C163.459 20.7051 163.553 21.8652 163.74 23.0371C163.939 24.1973 164.285 25.2461 164.777 26.1836C165.27 27.1094 165.92 27.8711 166.729 28.4688C167.549 29.0547 168.586 29.3477 169.84 29.3477C171.082 29.3477 172.113 29.0547 172.934 28.4688C173.754 27.8711 174.41 27.1094 174.902 26.1836C175.395 25.2461 175.734 24.1973 175.922 23.0371C176.109 21.8652 176.203 20.7051 176.203 19.5566ZM197.631 14.6172C197.631 16.832 196.939 18.4785 195.557 19.5566C194.174 20.6348 192.234 21.1738 189.738 21.1738H184.553V31H182.145V8.06055H189.703C192.223 8.06055 194.174 8.61133 195.557 9.71289C196.939 10.8027 197.631 12.4375 197.631 14.6172ZM195.223 14.6172C195.223 13.0352 194.725 11.8926 193.729 11.1895C192.732 10.4746 191.402 10.1172 189.738 10.1172H184.553V19.1172H189.738C191.402 19.1172 192.732 18.7656 193.729 18.0625C194.725 17.3477 195.223 16.1992 195.223 14.6172ZM59.2383 67H44.5781V44.0605H46.9863V64.9434H59.2383V67ZM80.3672 55.5566C80.3672 57.0918 80.209 58.5742 79.8926 60.0039C79.5762 61.4336 79.0723 62.6934 78.3809 63.7832C77.6895 64.873 76.7812 65.752 75.6562 66.4199C74.543 67.0762 73.1836 67.4043 71.5781 67.4043C69.9727 67.4043 68.6074 67.0762 67.4824 66.4199C66.3691 65.752 65.4609 64.873 64.7578 63.7832C64.0664 62.6934 63.5684 61.4336 63.2637 60.0039C62.9473 58.5742 62.7891 57.0918 62.7891 55.5566C62.7891 54.0215 62.9473 52.5391 63.2637 51.1094C63.5684 49.6797 64.0723 48.4141 64.7754 47.3125C65.4902 46.2109 66.4043 45.332 67.5176 44.6758C68.6426 44.0078 69.9961 43.6738 71.5781 43.6738C73.1602 43.6738 74.5078 44.0078 75.6211 44.6758C76.7461 45.332 77.6543 46.2109 78.3457 47.3125C79.0371 48.4141 79.5469 49.6797 79.875 51.1094C80.2031 52.5391 80.3672 54.0215 80.3672 55.5566ZM77.9414 55.5566C77.9414 54.0449 77.7949 52.6855 77.502 51.4785C77.2207 50.2598 76.8105 49.2227 76.2715 48.3672C75.7324 47.5117 75.0645 46.8613 74.2676 46.416C73.4824 45.959 72.5859 45.7305 71.5781 45.7305C70.3242 45.7305 69.2871 46.0234 68.4668 46.6094C67.6582 47.1953 67.0078 47.9629 66.5156 48.9121C66.0234 49.8613 65.6777 50.916 65.4785 52.0762C65.291 53.2363 65.1973 54.3965 65.1973 55.5566C65.1973 56.7051 65.291 57.8652 65.4785 59.0371C65.6777 60.1973 66.0234 61.2461 66.5156 62.1836C67.0078 63.1094 67.6582 63.8711 68.4668 64.4688C69.2871 65.0547 70.3242 65.3477 71.5781 65.3477C72.8203 65.3477 73.8516 65.0547 74.6719 64.4688C75.4922 63.8711 76.1484 63.1094 76.6406 62.1836C77.1328 61.2461 77.4727 60.1973 77.6602 59.0371C77.8477 57.8652 77.9414 56.7051 77.9414 55.5566ZM100.02 55.5566C100.02 57.0918 99.8613 58.5742 99.5449 60.0039C99.2285 61.4336 98.7246 62.6934 98.0332 63.7832C97.3418 64.873 96.4336 65.752 95.3086 66.4199C94.1953 67.0762 92.8359 67.4043 91.2305 67.4043C89.625 67.4043 88.2598 67.0762 87.1348 66.4199C86.0215 65.752 85.1133 64.873 84.4102 63.7832C83.7188 62.6934 83.2207 61.4336 82.916 60.0039C82.5996 58.5742 82.4414 57.0918 82.4414 55.5566C82.4414 54.0215 82.5996 52.5391 82.916 51.1094C83.2207 49.6797 83.7246 48.4141 84.4277 47.3125C85.1426 46.2109 86.0566 45.332 87.1699 44.6758C88.2949 44.0078 89.6484 43.6738 91.2305 43.6738C92.8125 43.6738 94.1602 44.0078 95.2734 44.6758C96.3984 45.332 97.3066 46.2109 97.998 47.3125C98.6895 48.4141 99.1992 49.6797 99.5273 51.1094C99.8555 52.5391 100.02 54.0215 100.02 55.5566ZM97.5938 55.5566C97.5938 54.0449 97.4473 52.6855 97.1543 51.4785C96.873 50.2598 96.4629 49.2227 95.9238 48.3672C95.3848 47.5117 94.7168 46.8613 93.9199 46.416C93.1348 45.959 92.2383 45.7305 91.2305 45.7305C89.9766 45.7305 88.9395 46.0234 88.1191 46.6094C87.3105 47.1953 86.6602 47.9629 86.168 48.9121C85.6758 49.8613 85.3301 50.916 85.1309 52.0762C84.9434 53.2363 84.8496 54.3965 84.8496 55.5566C84.8496 56.7051 84.9434 57.8652 85.1309 59.0371C85.3301 60.1973 85.6758 61.2461 86.168 62.1836C86.6602 63.1094 87.3105 63.8711 88.1191 64.4688C88.9395 65.0547 89.9766 65.3477 91.2305 65.3477C92.4727 65.3477 93.5039 65.0547 94.3242 64.4688C95.1445 63.8711 95.8008 63.1094 96.293 62.1836C96.7852 61.2461 97.125 60.1973 97.3125 59.0371C97.5 57.8652 97.5938 56.7051 97.5938 55.5566ZM118.951 67H115.998L108.369 55.7676L105.943 58.4746V67H103.535V44.0605H105.943V55.2227L115.77 44.0605H118.951L109.951 54.0801L118.951 67ZM135.422 67H125.596V64.9434H129.305V46.1172H125.596V44.0605H135.422V46.1172H131.73V64.9434H135.422V67ZM157.5 67H154.512L145.248 47.5938V67H142.84V44.0605H146.232L155.074 62.5703V44.0605H157.5V67ZM178.91 55.5918C178.91 57.1504 178.746 58.6387 178.418 60.0566C178.102 61.4746 177.586 62.7285 176.871 63.8184C176.168 64.9082 175.254 65.7812 174.129 66.4375C173.016 67.082 171.668 67.4043 170.086 67.4043C168.48 67.4043 167.121 67.0762 166.008 66.4199C164.895 65.752 163.98 64.873 163.266 63.7832C162.562 62.6934 162.053 61.4336 161.736 60.0039C161.432 58.5742 161.279 57.0918 161.279 55.5566C161.279 54.0215 161.432 52.5391 161.736 51.1094C162.053 49.6797 162.562 48.4141 163.266 47.3125C163.98 46.2109 164.895 45.332 166.008 44.6758C167.121 44.0078 168.48 43.6738 170.086 43.6738C171.504 43.6738 172.717 43.9258 173.725 44.4297C174.732 44.9336 175.477 45.7012 175.957 46.7324V44.0605H178.014V51.584H175.957C175.957 50.752 175.799 49.9785 175.482 49.2637C175.178 48.5371 174.762 47.916 174.234 47.4004C173.707 46.8848 173.08 46.4805 172.354 46.1875C171.639 45.8828 170.883 45.7305 170.086 45.7305C168.844 45.7305 167.812 46.0234 166.992 46.6094C166.184 47.1953 165.533 47.9629 165.041 48.9121C164.549 49.8613 164.197 50.916 163.986 52.0762C163.787 53.2363 163.688 54.3965 163.688 55.5566C163.688 56.7051 163.787 57.8652 163.986 59.0371C164.197 60.1973 164.549 61.2461 165.041 62.1836C165.533 63.1094 166.184 63.8711 166.992 64.4688C167.812 65.0547 168.844 65.3477 170.086 65.3477C171.938 65.3477 173.396 64.6328 174.463 63.2031C175.529 61.7734 176.162 59.7637 176.361 57.1738H171.281V55.1172H178.91V55.5918Z" fill="#FF5900"/>
</g>
<g filter="url(#filter2_d_676_1774)">
<path d="M22.5508 18.5566C22.5508 20.0918 22.3867 21.5566 22.0586 22.9512C21.7422 24.334 21.2266 25.5527 20.5117 26.6074C19.8086 27.6504 18.8945 28.4766 17.7695 29.0859C16.6562 29.6953 15.3086 30 13.7266 30H6.27344V7.06055H13.7266C15.2852 7.06055 16.6211 7.37695 17.7344 8.00977C18.8594 8.63086 19.7734 9.46875 20.4766 10.5234C21.1914 11.5781 21.7129 12.7969 22.041 14.1797C22.3809 15.5625 22.5508 17.0215 22.5508 18.5566ZM20.1426 18.5566C20.1426 15.5566 19.5742 13.2363 18.4375 11.5957C17.3125 9.94336 15.7422 9.11719 13.7266 9.11719H8.68164V27.9434H13.7266C15.7422 27.9434 17.3125 27.1289 18.4375 25.5C19.5742 23.8711 20.1426 21.5566 20.1426 18.5566ZM42.0625 18.5566C42.0625 20.0918 41.9043 21.5742 41.5879 23.0039C41.2715 24.4336 40.7676 25.6934 40.0762 26.7832C39.3848 27.873 38.4766 28.752 37.3516 29.4199C36.2383 30.0762 34.8789 30.4043 33.2734 30.4043C31.668 30.4043 30.3027 30.0762 29.1777 29.4199C28.0645 28.752 27.1562 27.873 26.4531 26.7832C25.7617 25.6934 25.2637 24.4336 24.959 23.0039C24.6426 21.5742 24.4844 20.0918 24.4844 18.5566C24.4844 17.0215 24.6426 15.5391 24.959 14.1094C25.2637 12.6797 25.7676 11.4141 26.4707 10.3125C27.1855 9.21094 28.0996 8.33203 29.2129 7.67578C30.3379 7.00781 31.6914 6.67383 33.2734 6.67383C34.8555 6.67383 36.2031 7.00781 37.3164 7.67578C38.4414 8.33203 39.3496 9.21094 40.041 10.3125C40.7324 11.4141 41.2422 12.6797 41.5703 14.1094C41.8984 15.5391 42.0625 17.0215 42.0625 18.5566ZM39.6367 18.5566C39.6367 17.0449 39.4902 15.6855 39.1973 14.4785C38.916 13.2598 38.5059 12.2227 37.9668 11.3672C37.4277 10.5117 36.7598 9.86133 35.9629 9.41602C35.1777 8.95898 34.2812 8.73047 33.2734 8.73047C32.0195 8.73047 30.9824 9.02344 30.1621 9.60938C29.3535 10.1953 28.7031 10.9629 28.2109 11.9121C27.7188 12.8613 27.373 13.916 27.1738 15.0762C26.9863 16.2363 26.8926 17.3965 26.8926 18.5566C26.8926 19.7051 26.9863 20.8652 27.1738 22.0371C27.373 23.1973 27.7188 24.2461 28.2109 25.1836C28.7031 26.1094 29.3535 26.8711 30.1621 27.4688C30.9824 28.0547 32.0195 28.3477 33.2734 28.3477C34.5156 28.3477 35.5469 28.0547 36.3672 27.4688C37.1875 26.8711 37.8438 26.1094 38.3359 25.1836C38.8281 24.2461 39.168 23.1973 39.3555 22.0371C39.543 20.8652 39.6367 19.7051 39.6367 18.5566ZM60.2383 30H57.25L47.9863 10.5938V30H45.5781V7.06055H48.9707L57.8125 25.5703V7.06055H60.2383V30ZM67.6387 7.06055H73.2637V10.8926C73.2637 11.7012 73.1406 12.4688 72.8945 13.1953C72.6602 13.9102 72.3086 14.5371 71.8398 15.0762C71.3711 15.6152 70.7852 16.0488 70.082 16.377C69.3906 16.6934 68.5762 16.8516 67.6387 16.8516V14.8125C70.0176 14.8125 71.207 13.5059 71.207 10.8926V10.3477H67.6387V7.06055ZM100.404 14.8125H98.3477V9.11719H93.4258V27.9434H97.1172V30H87.291V27.9434H91V9.11719H86.0781V14.8125H84.0215V7.06055H100.404V14.8125ZM139.129 24.0234C139.129 24.9844 138.93 25.8574 138.531 26.6426C138.133 27.416 137.6 28.084 136.932 28.6465C136.264 29.209 135.496 29.6426 134.629 29.9473C133.762 30.252 132.859 30.4043 131.922 30.4043C130.633 30.4043 129.449 30.1641 128.371 29.6836C127.293 29.2031 126.438 28.4941 125.805 27.5566V30H123.766V23.0215H125.805C125.805 23.8066 125.986 24.5273 126.35 25.1836C126.713 25.8281 127.176 26.3848 127.738 26.8535C128.301 27.3223 128.945 27.6914 129.672 27.9609C130.41 28.2188 131.16 28.3477 131.922 28.3477C132.602 28.3477 133.229 28.2539 133.803 28.0664C134.377 27.8672 134.881 27.5918 135.314 27.2402C135.748 26.877 136.088 26.4375 136.334 25.9219C136.592 25.4062 136.721 24.8203 136.721 24.1641C136.721 23.4258 136.557 22.793 136.229 22.2656C135.912 21.7383 135.479 21.2871 134.928 20.9121C134.389 20.5371 133.779 20.2207 133.1 19.9629C132.42 19.6934 131.729 19.4297 131.025 19.1719C130.193 18.8789 129.361 18.5742 128.529 18.2578C127.697 17.9297 126.953 17.5195 126.297 17.0273C125.641 16.5352 125.107 15.9375 124.697 15.2344C124.287 14.5195 124.082 13.6348 124.082 12.5801C124.082 11.6426 124.281 10.8105 124.68 10.084C125.078 9.3457 125.6 8.72461 126.244 8.2207C126.889 7.7168 127.639 7.33594 128.494 7.07812C129.35 6.80859 130.229 6.67383 131.131 6.67383C132.244 6.67383 133.27 6.90234 134.207 7.35938C135.156 7.81641 135.895 8.51367 136.422 9.45117V7.06055H138.549V13.6172H136.422C136.422 12.9258 136.275 12.2812 135.982 11.6836C135.701 11.0742 135.314 10.5586 134.822 10.1367C134.33 9.70312 133.768 9.36328 133.135 9.11719C132.502 8.85937 131.834 8.73047 131.131 8.73047C130.51 8.73047 129.918 8.80078 129.355 8.94141C128.793 9.08203 128.301 9.31055 127.879 9.62695C127.457 9.93164 127.117 10.3301 126.859 10.8223C126.613 11.3145 126.49 11.9004 126.49 12.5801C126.49 13.1777 126.637 13.6875 126.93 14.1094C127.234 14.5312 127.639 14.9062 128.143 15.2344C128.646 15.5508 129.227 15.8438 129.883 16.1133C130.551 16.3711 131.23 16.6348 131.922 16.9043C132.789 17.209 133.65 17.5488 134.506 17.9238C135.361 18.2988 136.129 18.75 136.809 19.2773C137.488 19.8047 138.045 20.4551 138.479 21.2285C138.912 21.9902 139.129 22.9219 139.129 24.0234ZM159.361 14.8125H157.305V9.11719H152.383V27.9434H156.074V30H146.248V27.9434H149.957V9.11719H145.035V14.8125H142.979V7.06055H159.361V14.8125ZM179.629 18.5566C179.629 20.0918 179.471 21.5742 179.154 23.0039C178.838 24.4336 178.334 25.6934 177.643 26.7832C176.951 27.873 176.043 28.752 174.918 29.4199C173.805 30.0762 172.445 30.4043 170.84 30.4043C169.234 30.4043 167.869 30.0762 166.744 29.4199C165.631 28.752 164.723 27.873 164.02 26.7832C163.328 25.6934 162.83 24.4336 162.525 23.0039C162.209 21.5742 162.051 20.0918 162.051 18.5566C162.051 17.0215 162.209 15.5391 162.525 14.1094C162.83 12.6797 163.334 11.4141 164.037 10.3125C164.752 9.21094 165.666 8.33203 166.779 7.67578C167.904 7.00781 169.258 6.67383 170.84 6.67383C172.422 6.67383 173.77 7.00781 174.883 7.67578C176.008 8.33203 176.916 9.21094 177.607 10.3125C178.299 11.4141 178.809 12.6797 179.137 14.1094C179.465 15.5391 179.629 17.0215 179.629 18.5566ZM177.203 18.5566C177.203 17.0449 177.057 15.6855 176.764 14.4785C176.482 13.2598 176.072 12.2227 175.533 11.3672C174.994 10.5117 174.326 9.86133 173.529 9.41602C172.744 8.95898 171.848 8.73047 170.84 8.73047C169.586 8.73047 168.549 9.02344 167.729 9.60938C166.92 10.1953 166.27 10.9629 165.777 11.9121C165.285 12.8613 164.939 13.916 164.74 15.0762C164.553 16.2363 164.459 17.3965 164.459 18.5566C164.459 19.7051 164.553 20.8652 164.74 22.0371C164.939 23.1973 165.285 24.2461 165.777 25.1836C166.27 26.1094 166.92 26.8711 167.729 27.4688C168.549 28.0547 169.586 28.3477 170.84 28.3477C172.082 28.3477 173.113 28.0547 173.934 27.4688C174.754 26.8711 175.41 26.1094 175.902 25.1836C176.395 24.2461 176.734 23.1973 176.922 22.0371C177.109 20.8652 177.203 19.7051 177.203 18.5566ZM198.631 13.6172C198.631 15.832 197.939 17.4785 196.557 18.5566C195.174 19.6348 193.234 20.1738 190.738 20.1738H185.553V30H183.145V7.06055H190.703C193.223 7.06055 195.174 7.61133 196.557 8.71289C197.939 9.80273 198.631 11.4375 198.631 13.6172ZM196.223 13.6172C196.223 12.0352 195.725 10.8926 194.729 10.1895C193.732 9.47461 192.402 9.11719 190.738 9.11719H185.553V18.1172H190.738C192.402 18.1172 193.732 17.7656 194.729 17.0625C195.725 16.3477 196.223 15.1992 196.223 13.6172ZM60.2383 66H45.5781V43.0605H47.9863V63.9434H60.2383V66ZM81.3672 54.5566C81.3672 56.0918 81.209 57.5742 80.8926 59.0039C80.5762 60.4336 80.0723 61.6934 79.3809 62.7832C78.6895 63.873 77.7812 64.752 76.6562 65.4199C75.543 66.0762 74.1836 66.4043 72.5781 66.4043C70.9727 66.4043 69.6074 66.0762 68.4824 65.4199C67.3691 64.752 66.4609 63.873 65.7578 62.7832C65.0664 61.6934 64.5684 60.4336 64.2637 59.0039C63.9473 57.5742 63.7891 56.0918 63.7891 54.5566C63.7891 53.0215 63.9473 51.5391 64.2637 50.1094C64.5684 48.6797 65.0723 47.4141 65.7754 46.3125C66.4902 45.2109 67.4043 44.332 68.5176 43.6758C69.6426 43.0078 70.9961 42.6738 72.5781 42.6738C74.1602 42.6738 75.5078 43.0078 76.6211 43.6758C77.7461 44.332 78.6543 45.2109 79.3457 46.3125C80.0371 47.4141 80.5469 48.6797 80.875 50.1094C81.2031 51.5391 81.3672 53.0215 81.3672 54.5566ZM78.9414 54.5566C78.9414 53.0449 78.7949 51.6855 78.502 50.4785C78.2207 49.2598 77.8105 48.2227 77.2715 47.3672C76.7324 46.5117 76.0645 45.8613 75.2676 45.416C74.4824 44.959 73.5859 44.7305 72.5781 44.7305C71.3242 44.7305 70.2871 45.0234 69.4668 45.6094C68.6582 46.1953 68.0078 46.9629 67.5156 47.9121C67.0234 48.8613 66.6777 49.916 66.4785 51.0762C66.291 52.2363 66.1973 53.3965 66.1973 54.5566C66.1973 55.7051 66.291 56.8652 66.4785 58.0371C66.6777 59.1973 67.0234 60.2461 67.5156 61.1836C68.0078 62.1094 68.6582 62.8711 69.4668 63.4688C70.2871 64.0547 71.3242 64.3477 72.5781 64.3477C73.8203 64.3477 74.8516 64.0547 75.6719 63.4688C76.4922 62.8711 77.1484 62.1094 77.6406 61.1836C78.1328 60.2461 78.4727 59.1973 78.6602 58.0371C78.8477 56.8652 78.9414 55.7051 78.9414 54.5566ZM101.02 54.5566C101.02 56.0918 100.861 57.5742 100.545 59.0039C100.229 60.4336 99.7246 61.6934 99.0332 62.7832C98.3418 63.873 97.4336 64.752 96.3086 65.4199C95.1953 66.0762 93.8359 66.4043 92.2305 66.4043C90.625 66.4043 89.2598 66.0762 88.1348 65.4199C87.0215 64.752 86.1133 63.873 85.4102 62.7832C84.7188 61.6934 84.2207 60.4336 83.916 59.0039C83.5996 57.5742 83.4414 56.0918 83.4414 54.5566C83.4414 53.0215 83.5996 51.5391 83.916 50.1094C84.2207 48.6797 84.7246 47.4141 85.4277 46.3125C86.1426 45.2109 87.0566 44.332 88.1699 43.6758C89.2949 43.0078 90.6484 42.6738 92.2305 42.6738C93.8125 42.6738 95.1602 43.0078 96.2734 43.6758C97.3984 44.332 98.3066 45.2109 98.998 46.3125C99.6895 47.4141 100.199 48.6797 100.527 50.1094C100.855 51.5391 101.02 53.0215 101.02 54.5566ZM98.5938 54.5566C98.5938 53.0449 98.4473 51.6855 98.1543 50.4785C97.873 49.2598 97.4629 48.2227 96.9238 47.3672C96.3848 46.5117 95.7168 45.8613 94.9199 45.416C94.1348 44.959 93.2383 44.7305 92.2305 44.7305C90.9766 44.7305 89.9395 45.0234 89.1191 45.6094C88.3105 46.1953 87.6602 46.9629 87.168 47.9121C86.6758 48.8613 86.3301 49.916 86.1309 51.0762C85.9434 52.2363 85.8496 53.3965 85.8496 54.5566C85.8496 55.7051 85.9434 56.8652 86.1309 58.0371C86.3301 59.1973 86.6758 60.2461 87.168 61.1836C87.6602 62.1094 88.3105 62.8711 89.1191 63.4688C89.9395 64.0547 90.9766 64.3477 92.2305 64.3477C93.4727 64.3477 94.5039 64.0547 95.3242 63.4688C96.1445 62.8711 96.8008 62.1094 97.293 61.1836C97.7852 60.2461 98.125 59.1973 98.3125 58.0371C98.5 56.8652 98.5938 55.7051 98.5938 54.5566ZM119.951 66H116.998L109.369 54.7676L106.943 57.4746V66H104.535V43.0605H106.943V54.2227L116.77 43.0605H119.951L110.951 53.0801L119.951 66ZM136.422 66H126.596V63.9434H130.305V45.1172H126.596V43.0605H136.422V45.1172H132.73V63.9434H136.422V66ZM158.5 66H155.512L146.248 46.5938V66H143.84V43.0605H147.232L156.074 61.5703V43.0605H158.5V66ZM179.91 54.5918C179.91 56.1504 179.746 57.6387 179.418 59.0566C179.102 60.4746 178.586 61.7285 177.871 62.8184C177.168 63.9082 176.254 64.7812 175.129 65.4375C174.016 66.082 172.668 66.4043 171.086 66.4043C169.48 66.4043 168.121 66.0762 167.008 65.4199C165.895 64.752 164.98 63.873 164.266 62.7832C163.562 61.6934 163.053 60.4336 162.736 59.0039C162.432 57.5742 162.279 56.0918 162.279 54.5566C162.279 53.0215 162.432 51.5391 162.736 50.1094C163.053 48.6797 163.562 47.4141 164.266 46.3125C164.98 45.2109 165.895 44.332 167.008 43.6758C168.121 43.0078 169.48 42.6738 171.086 42.6738C172.504 42.6738 173.717 42.9258 174.725 43.4297C175.732 43.9336 176.477 44.7012 176.957 45.7324V43.0605H179.014V50.584H176.957C176.957 49.752 176.799 48.9785 176.482 48.2637C176.178 47.5371 175.762 46.916 175.234 46.4004C174.707 45.8848 174.08 45.4805 173.354 45.1875C172.639 44.8828 171.883 44.7305 171.086 44.7305C169.844 44.7305 168.812 45.0234 167.992 45.6094C167.184 46.1953 166.533 46.9629 166.041 47.9121C165.549 48.8613 165.197 49.916 164.986 51.0762C164.787 52.2363 164.688 53.3965 164.688 54.5566C164.688 55.7051 164.787 56.8652 164.986 58.0371C165.197 59.1973 165.549 60.2461 166.041 61.1836C166.533 62.1094 167.184 62.8711 167.992 63.4688C168.812 64.0547 169.844 64.3477 171.086 64.3477C172.938 64.3477 174.396 63.6328 175.463 62.2031C176.529 60.7734 177.162 58.7637 177.361 56.1738H172.281V54.1172H179.91V54.5918Z" fill="#FFE100"/>
</g>
<g filter="url(#filter3_d_676_1774)">
<path d="M23.5508 17.5566C23.5508 19.0918 23.3867 20.5566 23.0586 21.9512C22.7422 23.334 22.2266 24.5527 21.5117 25.6074C20.8086 26.6504 19.8945 27.4766 18.7695 28.0859C17.6562 28.6953 16.3086 29 14.7266 29H7.27344V6.06055H14.7266C16.2852 6.06055 17.6211 6.37695 18.7344 7.00977C19.8594 7.63086 20.7734 8.46875 21.4766 9.52344C22.1914 10.5781 22.7129 11.7969 23.041 13.1797C23.3809 14.5625 23.5508 16.0215 23.5508 17.5566ZM21.1426 17.5566C21.1426 14.5566 20.5742 12.2363 19.4375 10.5957C18.3125 8.94336 16.7422 8.11719 14.7266 8.11719H9.68164V26.9434H14.7266C16.7422 26.9434 18.3125 26.1289 19.4375 24.5C20.5742 22.8711 21.1426 20.5566 21.1426 17.5566ZM43.0625 17.5566C43.0625 19.0918 42.9043 20.5742 42.5879 22.0039C42.2715 23.4336 41.7676 24.6934 41.0762 25.7832C40.3848 26.873 39.4766 27.752 38.3516 28.4199C37.2383 29.0762 35.8789 29.4043 34.2734 29.4043C32.668 29.4043 31.3027 29.0762 30.1777 28.4199C29.0645 27.752 28.1562 26.873 27.4531 25.7832C26.7617 24.6934 26.2637 23.4336 25.959 22.0039C25.6426 20.5742 25.4844 19.0918 25.4844 17.5566C25.4844 16.0215 25.6426 14.5391 25.959 13.1094C26.2637 11.6797 26.7676 10.4141 27.4707 9.3125C28.1855 8.21094 29.0996 7.33203 30.2129 6.67578C31.3379 6.00781 32.6914 5.67383 34.2734 5.67383C35.8555 5.67383 37.2031 6.00781 38.3164 6.67578C39.4414 7.33203 40.3496 8.21094 41.041 9.3125C41.7324 10.4141 42.2422 11.6797 42.5703 13.1094C42.8984 14.5391 43.0625 16.0215 43.0625 17.5566ZM40.6367 17.5566C40.6367 16.0449 40.4902 14.6855 40.1973 13.4785C39.916 12.2598 39.5059 11.2227 38.9668 10.3672C38.4277 9.51172 37.7598 8.86133 36.9629 8.41602C36.1777 7.95898 35.2812 7.73047 34.2734 7.73047C33.0195 7.73047 31.9824 8.02344 31.1621 8.60938C30.3535 9.19531 29.7031 9.96289 29.2109 10.9121C28.7188 11.8613 28.373 12.916 28.1738 14.0762C27.9863 15.2363 27.8926 16.3965 27.8926 17.5566C27.8926 18.7051 27.9863 19.8652 28.1738 21.0371C28.373 22.1973 28.7188 23.2461 29.2109 24.1836C29.7031 25.1094 30.3535 25.8711 31.1621 26.4688C31.9824 27.0547 33.0195 27.3477 34.2734 27.3477C35.5156 27.3477 36.5469 27.0547 37.3672 26.4688C38.1875 25.8711 38.8438 25.1094 39.3359 24.1836C39.8281 23.2461 40.168 22.1973 40.3555 21.0371C40.543 19.8652 40.6367 18.7051 40.6367 17.5566ZM61.2383 29H58.25L48.9863 9.59375V29H46.5781V6.06055H49.9707L58.8125 24.5703V6.06055H61.2383V29ZM68.6387 6.06055H74.2637V9.89258C74.2637 10.7012 74.1406 11.4688 73.8945 12.1953C73.6602 12.9102 73.3086 13.5371 72.8398 14.0762C72.3711 14.6152 71.7852 15.0488 71.082 15.377C70.3906 15.6934 69.5762 15.8516 68.6387 15.8516V13.8125C71.0176 13.8125 72.207 12.5059 72.207 9.89258V9.34766H68.6387V6.06055ZM101.404 13.8125H99.3477V8.11719H94.4258V26.9434H98.1172V29H88.291V26.9434H92V8.11719H87.0781V13.8125H85.0215V6.06055H101.404V13.8125ZM140.129 23.0234C140.129 23.9844 139.93 24.8574 139.531 25.6426C139.133 26.416 138.6 27.084 137.932 27.6465C137.264 28.209 136.496 28.6426 135.629 28.9473C134.762 29.252 133.859 29.4043 132.922 29.4043C131.633 29.4043 130.449 29.1641 129.371 28.6836C128.293 28.2031 127.438 27.4941 126.805 26.5566V29H124.766V22.0215H126.805C126.805 22.8066 126.986 23.5273 127.35 24.1836C127.713 24.8281 128.176 25.3848 128.738 25.8535C129.301 26.3223 129.945 26.6914 130.672 26.9609C131.41 27.2188 132.16 27.3477 132.922 27.3477C133.602 27.3477 134.229 27.2539 134.803 27.0664C135.377 26.8672 135.881 26.5918 136.314 26.2402C136.748 25.877 137.088 25.4375 137.334 24.9219C137.592 24.4062 137.721 23.8203 137.721 23.1641C137.721 22.4258 137.557 21.793 137.229 21.2656C136.912 20.7383 136.479 20.2871 135.928 19.9121C135.389 19.5371 134.779 19.2207 134.1 18.9629C133.42 18.6934 132.729 18.4297 132.025 18.1719C131.193 17.8789 130.361 17.5742 129.529 17.2578C128.697 16.9297 127.953 16.5195 127.297 16.0273C126.641 15.5352 126.107 14.9375 125.697 14.2344C125.287 13.5195 125.082 12.6348 125.082 11.5801C125.082 10.6426 125.281 9.81055 125.68 9.08398C126.078 8.3457 126.6 7.72461 127.244 7.2207C127.889 6.7168 128.639 6.33594 129.494 6.07812C130.35 5.80859 131.229 5.67383 132.131 5.67383C133.244 5.67383 134.27 5.90234 135.207 6.35938C136.156 6.81641 136.895 7.51367 137.422 8.45117V6.06055H139.549V12.6172H137.422C137.422 11.9258 137.275 11.2812 136.982 10.6836C136.701 10.0742 136.314 9.55859 135.822 9.13672C135.33 8.70312 134.768 8.36328 134.135 8.11719C133.502 7.85937 132.834 7.73047 132.131 7.73047C131.51 7.73047 130.918 7.80078 130.355 7.94141C129.793 8.08203 129.301 8.31055 128.879 8.62695C128.457 8.93164 128.117 9.33008 127.859 9.82227C127.613 10.3145 127.49 10.9004 127.49 11.5801C127.49 12.1777 127.637 12.6875 127.93 13.1094C128.234 13.5312 128.639 13.9062 129.143 14.2344C129.646 14.5508 130.227 14.8438 130.883 15.1133C131.551 15.3711 132.23 15.6348 132.922 15.9043C133.789 16.209 134.65 16.5488 135.506 16.9238C136.361 17.2988 137.129 17.75 137.809 18.2773C138.488 18.8047 139.045 19.4551 139.479 20.2285C139.912 20.9902 140.129 21.9219 140.129 23.0234ZM160.361 13.8125H158.305V8.11719H153.383V26.9434H157.074V29H147.248V26.9434H150.957V8.11719H146.035V13.8125H143.979V6.06055H160.361V13.8125ZM180.629 17.5566C180.629 19.0918 180.471 20.5742 180.154 22.0039C179.838 23.4336 179.334 24.6934 178.643 25.7832C177.951 26.873 177.043 27.752 175.918 28.4199C174.805 29.0762 173.445 29.4043 171.84 29.4043C170.234 29.4043 168.869 29.0762 167.744 28.4199C166.631 27.752 165.723 26.873 165.02 25.7832C164.328 24.6934 163.83 23.4336 163.525 22.0039C163.209 20.5742 163.051 19.0918 163.051 17.5566C163.051 16.0215 163.209 14.5391 163.525 13.1094C163.83 11.6797 164.334 10.4141 165.037 9.3125C165.752 8.21094 166.666 7.33203 167.779 6.67578C168.904 6.00781 170.258 5.67383 171.84 5.67383C173.422 5.67383 174.77 6.00781 175.883 6.67578C177.008 7.33203 177.916 8.21094 178.607 9.3125C179.299 10.4141 179.809 11.6797 180.137 13.1094C180.465 14.5391 180.629 16.0215 180.629 17.5566ZM178.203 17.5566C178.203 16.0449 178.057 14.6855 177.764 13.4785C177.482 12.2598 177.072 11.2227 176.533 10.3672C175.994 9.51172 175.326 8.86133 174.529 8.41602C173.744 7.95898 172.848 7.73047 171.84 7.73047C170.586 7.73047 169.549 8.02344 168.729 8.60938C167.92 9.19531 167.27 9.96289 166.777 10.9121C166.285 11.8613 165.939 12.916 165.74 14.0762C165.553 15.2363 165.459 16.3965 165.459 17.5566C165.459 18.7051 165.553 19.8652 165.74 21.0371C165.939 22.1973 166.285 23.2461 166.777 24.1836C167.27 25.1094 167.92 25.8711 168.729 26.4688C169.549 27.0547 170.586 27.3477 171.84 27.3477C173.082 27.3477 174.113 27.0547 174.934 26.4688C175.754 25.8711 176.41 25.1094 176.902 24.1836C177.395 23.2461 177.734 22.1973 177.922 21.0371C178.109 19.8652 178.203 18.7051 178.203 17.5566ZM199.631 12.6172C199.631 14.832 198.939 16.4785 197.557 17.5566C196.174 18.6348 194.234 19.1738 191.738 19.1738H186.553V29H184.145V6.06055H191.703C194.223 6.06055 196.174 6.61133 197.557 7.71289C198.939 8.80273 199.631 10.4375 199.631 12.6172ZM197.223 12.6172C197.223 11.0352 196.725 9.89258 195.729 9.18945C194.732 8.47461 193.402 8.11719 191.738 8.11719H186.553V17.1172H191.738C193.402 17.1172 194.732 16.7656 195.729 16.0625C196.725 15.3477 197.223 14.1992 197.223 12.6172ZM61.2383 65H46.5781V42.0605H48.9863V62.9434H61.2383V65ZM82.3672 53.5566C82.3672 55.0918 82.209 56.5742 81.8926 58.0039C81.5762 59.4336 81.0723 60.6934 80.3809 61.7832C79.6895 62.873 78.7812 63.752 77.6562 64.4199C76.543 65.0762 75.1836 65.4043 73.5781 65.4043C71.9727 65.4043 70.6074 65.0762 69.4824 64.4199C68.3691 63.752 67.4609 62.873 66.7578 61.7832C66.0664 60.6934 65.5684 59.4336 65.2637 58.0039C64.9473 56.5742 64.7891 55.0918 64.7891 53.5566C64.7891 52.0215 64.9473 50.5391 65.2637 49.1094C65.5684 47.6797 66.0723 46.4141 66.7754 45.3125C67.4902 44.2109 68.4043 43.332 69.5176 42.6758C70.6426 42.0078 71.9961 41.6738 73.5781 41.6738C75.1602 41.6738 76.5078 42.0078 77.6211 42.6758C78.7461 43.332 79.6543 44.2109 80.3457 45.3125C81.0371 46.4141 81.5469 47.6797 81.875 49.1094C82.2031 50.5391 82.3672 52.0215 82.3672 53.5566ZM79.9414 53.5566C79.9414 52.0449 79.7949 50.6855 79.502 49.4785C79.2207 48.2598 78.8105 47.2227 78.2715 46.3672C77.7324 45.5117 77.0645 44.8613 76.2676 44.416C75.4824 43.959 74.5859 43.7305 73.5781 43.7305C72.3242 43.7305 71.2871 44.0234 70.4668 44.6094C69.6582 45.1953 69.0078 45.9629 68.5156 46.9121C68.0234 47.8613 67.6777 48.916 67.4785 50.0762C67.291 51.2363 67.1973 52.3965 67.1973 53.5566C67.1973 54.7051 67.291 55.8652 67.4785 57.0371C67.6777 58.1973 68.0234 59.2461 68.5156 60.1836C69.0078 61.1094 69.6582 61.8711 70.4668 62.4688C71.2871 63.0547 72.3242 63.3477 73.5781 63.3477C74.8203 63.3477 75.8516 63.0547 76.6719 62.4688C77.4922 61.8711 78.1484 61.1094 78.6406 60.1836C79.1328 59.2461 79.4727 58.1973 79.6602 57.0371C79.8477 55.8652 79.9414 54.7051 79.9414 53.5566ZM102.02 53.5566C102.02 55.0918 101.861 56.5742 101.545 58.0039C101.229 59.4336 100.725 60.6934 100.033 61.7832C99.3418 62.873 98.4336 63.752 97.3086 64.4199C96.1953 65.0762 94.8359 65.4043 93.2305 65.4043C91.625 65.4043 90.2598 65.0762 89.1348 64.4199C88.0215 63.752 87.1133 62.873 86.4102 61.7832C85.7188 60.6934 85.2207 59.4336 84.916 58.0039C84.5996 56.5742 84.4414 55.0918 84.4414 53.5566C84.4414 52.0215 84.5996 50.5391 84.916 49.1094C85.2207 47.6797 85.7246 46.4141 86.4277 45.3125C87.1426 44.2109 88.0566 43.332 89.1699 42.6758C90.2949 42.0078 91.6484 41.6738 93.2305 41.6738C94.8125 41.6738 96.1602 42.0078 97.2734 42.6758C98.3984 43.332 99.3066 44.2109 99.998 45.3125C100.689 46.4141 101.199 47.6797 101.527 49.1094C101.855 50.5391 102.02 52.0215 102.02 53.5566ZM99.5938 53.5566C99.5938 52.0449 99.4473 50.6855 99.1543 49.4785C98.873 48.2598 98.4629 47.2227 97.9238 46.3672C97.3848 45.5117 96.7168 44.8613 95.9199 44.416C95.1348 43.959 94.2383 43.7305 93.2305 43.7305C91.9766 43.7305 90.9395 44.0234 90.1191 44.6094C89.3105 45.1953 88.6602 45.9629 88.168 46.9121C87.6758 47.8613 87.3301 48.916 87.1309 50.0762C86.9434 51.2363 86.8496 52.3965 86.8496 53.5566C86.8496 54.7051 86.9434 55.8652 87.1309 57.0371C87.3301 58.1973 87.6758 59.2461 88.168 60.1836C88.6602 61.1094 89.3105 61.8711 90.1191 62.4688C90.9395 63.0547 91.9766 63.3477 93.2305 63.3477C94.4727 63.3477 95.5039 63.0547 96.3242 62.4688C97.1445 61.8711 97.8008 61.1094 98.293 60.1836C98.7852 59.2461 99.125 58.1973 99.3125 57.0371C99.5 55.8652 99.5938 54.7051 99.5938 53.5566ZM120.951 65H117.998L110.369 53.7676L107.943 56.4746V65H105.535V42.0605H107.943V53.2227L117.77 42.0605H120.951L111.951 52.0801L120.951 65ZM137.422 65H127.596V62.9434H131.305V44.1172H127.596V42.0605H137.422V44.1172H133.73V62.9434H137.422V65ZM159.5 65H156.512L147.248 45.5938V65H144.84V42.0605H148.232L157.074 60.5703V42.0605H159.5V65ZM180.91 53.5918C180.91 55.1504 180.746 56.6387 180.418 58.0566C180.102 59.4746 179.586 60.7285 178.871 61.8184C178.168 62.9082 177.254 63.7812 176.129 64.4375C175.016 65.082 173.668 65.4043 172.086 65.4043C170.48 65.4043 169.121 65.0762 168.008 64.4199C166.895 63.752 165.98 62.873 165.266 61.7832C164.562 60.6934 164.053 59.4336 163.736 58.0039C163.432 56.5742 163.279 55.0918 163.279 53.5566C163.279 52.0215 163.432 50.5391 163.736 49.1094C164.053 47.6797 164.562 46.4141 165.266 45.3125C165.98 44.2109 166.895 43.332 168.008 42.6758C169.121 42.0078 170.48 41.6738 172.086 41.6738C173.504 41.6738 174.717 41.9258 175.725 42.4297C176.732 42.9336 177.477 43.7012 177.957 44.7324V42.0605H180.014V49.584H177.957C177.957 48.752 177.799 47.9785 177.482 47.2637C177.178 46.5371 176.762 45.916 176.234 45.4004C175.707 44.8848 175.08 44.4805 174.354 44.1875C173.639 43.8828 172.883 43.7305 172.086 43.7305C170.844 43.7305 169.812 44.0234 168.992 44.6094C168.184 45.1953 167.533 45.9629 167.041 46.9121C166.549 47.8613 166.197 48.916 165.986 50.0762C165.787 51.2363 165.688 52.3965 165.688 53.5566C165.688 54.7051 165.787 55.8652 165.986 57.0371C166.197 58.1973 166.549 59.2461 167.041 60.1836C167.533 61.1094 168.184 61.8711 168.992 62.4688C169.812 63.0547 170.844 63.3477 172.086 63.3477C173.938 63.3477 175.396 62.6328 176.463 61.2031C177.529 59.7734 178.162 57.7637 178.361 55.1738H173.281V53.1172H180.91V53.5918Z" fill="white"/>
</g>
<defs>
<filter id="filter0_d_676_1774" x="0.273438" y="8.67383" width="200.359" height="67.7305" filterUnits="userSpaceOnUse" color-interpolation-filters="sRGB">
<feFlood flood-opacity="0" result="BackgroundImageFix"/>
<feColorMatrix in="SourceAlpha" type="matrix" values="0 0 0 0 0 0 0 0 0 0 0 0 0 0 0 0 0 0 127 0" result="hardAlpha"/>
<feOffset dy="4"/>
<feGaussianBlur stdDeviation="2"/>
<feComposite in2="hardAlpha" operator="out"/>
<feColorMatrix type="matrix" values="0 0 0 0 0 0 0 0 0 0 0 0 0 0 0 0 0 0 0.25 0"/>
<feBlend mode="normal" in2="BackgroundImageFix" result="effect1_dropShadow_676_1774"/>
<feBlend mode="normal" in="SourceGraphic" in2="effect1_dropShadow_676_1774" result="shape"/>
</filter>
<filter id="filter1_d_676_1774" x="1.27344" y="7.67383" width="200.359" height="67.7305" filterUnits="userSpaceOnUse" color-interpolation-filters="sRGB">
<feFlood flood-opacity="0" result="BackgroundImageFix"/>
<feColorMatrix in="SourceAlpha" type="matrix" values="0 0 0 0 0 0 0 0 0 0 0 0 0 0 0 0 0 0 127 0" result="hardAlpha"/>
<feOffset dy="4"/>
<feGaussianBlur stdDeviation="2"/>
<feComposite in2="hardAlpha" operator="out"/>
<feColorMatrix type="matrix" values="0 0 0 0 0 0 0 0 0 0 0 0 0 0 0 0 0 0 0.25 0"/>
<feBlend mode="normal" in2="BackgroundImageFix" result="effect1_dropShadow_676_1774"/>
<feBlend mode="normal" in="SourceGraphic" in2="effect1_dropShadow_676_1774" result="shape"/>
</filter>
<filter id="filter2_d_676_1774" x="2.27344" y="6.67383" width="200.359" height="67.7305" filterUnits="userSpaceOnUse" color-interpolation-filters="sRGB">
<feFlood flood-opacity="0" result="BackgroundImageFix"/>
<feColorMatrix in="SourceAlpha" type="matrix" values="0 0 0 0 0 0 0 0 0 0 0 0 0 0 0 0 0 0 127 0" result="hardAlpha"/>
<feOffset dy="4"/>
<feGaussianBlur stdDeviation="2"/>
<feComposite in2="hardAlpha" operator="out"/>
<feColorMatrix type="matrix" values="0 0 0 0 0 0 0 0 0 0 0 0 0 0 0 0 0 0 0.25 0"/>
<feBlend mode="normal" in2="BackgroundImageFix" result="effect1_dropShadow_676_1774"/>
<feBlend mode="normal" in="SourceGraphic" in2="effect1_dropShadow_676_1774" result="shape"/>
</filter>
<filter id="filter3_d_676_1774" x="3.27344" y="5.67383" width="200.359" height="67.7305" filterUnits="userSpaceOnUse" color-interpolation-filters="sRGB">
<feFlood flood-opacity="0" result="BackgroundImageFix"/>
<feColorMatrix in="SourceAlpha" type="matrix" values="0 0 0 0 0 0 0 0 0 0 0 0 0 0 0 0 0 0 127 0" result="hardAlpha"/>
<feOffset dy="4"/>
<feGaussianBlur stdDeviation="2"/>
<feComposite in2="hardAlpha" operator="out"/>
<feColorMatrix type="matrix" values="0 0 0 0 0 0 0 0 0 0 0 0 0 0 0 0 0 0 0.25 0"/>
<feBlend mode="normal" in2="BackgroundImageFix" result="effect1_dropShadow_676_1774"/>
<feBlend mode="normal" in="SourceGraphic" in2="effect1_dropShadow_676_1774" result="shape"/>
</filter>
</defs>
</svg>
